<svg xmlns="http://www.w3.org/2000/svg" xmlns:xlink="http://www.w3.org/1999/xlink" width="128" zoomAndPan="magnify" viewBox="0 0 96.75 73.499996" height="98" preserveAspectRatio="xMidYMid meet" version="1.0"><defs><clipPath id="a44465dfef"><path d="M 15.960938 1.847656 L 80 1.847656 L 80 71.125 L 15.960938 71.125 Z M 15.960938 1.847656 " clip-rule="nonzero"/></clipPath></defs><g clip-path="url(#a44465dfef)"><path fill="#000000" d="M 47.976562 1.847656 C 47.003906 1.847656 46.03125 2.085938 45.191406 2.5625 L 18.757812 17.808594 C 17.050781 18.792969 15.984375 20.660156 15.984375 22.632812 L 15.984375 50.285156 C 15.984375 52.285156 17.050781 54.125 18.757812 55.113281 L 25.695312 59.109375 C 29.058594 60.761719 30.253906 60.757812 31.777344 60.757812 C 36.761719 60.757812 39.617188 57.746094 39.617188 52.523438 L 39.617188 23.988281 C 39.617188 23.5625 39.273438 23.214844 38.84375 23.214844 L 35.511719 23.214844 C 35.058594 23.214844 34.734375 23.5625 34.734375 23.988281 L 34.734375 52.5 C 34.734375 54.84375 32.308594 57.132812 28.390625 55.1875 L 21.132812 51.003906 C 20.867188 50.871094 20.707031 50.582031 20.707031 50.285156 L 20.707031 22.65625 C 20.707031 22.339844 20.867188 22.066406 21.132812 21.910156 L 47.566406 6.671875 C 47.804688 6.511719 48.128906 6.511719 48.394531 6.671875 L 74.828125 21.910156 C 75.09375 22.066406 75.253906 22.339844 75.253906 22.632812 L 75.253906 50.285156 C 75.253906 50.582031 75.09375 50.871094 74.851562 51.003906 L 48.394531 66.273438 C 48.152344 66.40625 47.804688 66.40625 47.566406 66.273438 L 40.761719 62.25 C 40.574219 62.117188 40.3125 62.09375 40.125 62.199219 C 38.234375 63.265625 37.886719 63.398438 36.125 64.011719 C 35.699219 64.144531 35.03125 64.410156 36.367188 65.15625 L 45.191406 70.378906 C 46.042969 70.859375 47.007812 71.125 47.96875 71.125 C 48.953125 71.125 49.910156 70.859375 50.765625 70.378906 L 77.230469 55.113281 C 78.9375 54.125 80 52.285156 80 50.285156 L 80 22.65625 C 80 20.660156 78.9375 18.820312 77.230469 17.832031 L 50.765625 2.5625 C 49.925781 2.085938 48.949219 1.847656 47.976562 1.847656 Z M 55.089844 23.179688 C 47.539062 23.179688 43.035156 26.375 43.035156 31.703125 C 43.035156 37.484375 47.511719 39.082031 54.765625 39.800781 C 63.433594 40.652344 64.101562 41.9375 64.101562 43.640625 C 64.101562 46.570312 61.730469 47.824219 56.15625 47.824219 C 49.140625 47.824219 47.59375 46.0625 47.085938 42.601562 C 47.03125 42.226562 46.714844 41.960938 46.339844 41.960938 L 42.898438 41.960938 C 42.472656 41.960938 42.152344 42.308594 42.152344 42.710938 C 42.152344 47.160156 44.582031 52.457031 56.15625 52.457031 C 64.53125 52.457031 69.332031 49.15625 69.332031 43.402344 C 69.332031 37.699219 65.460938 36.179688 57.355469 35.085938 C 49.113281 34.019531 48.285156 33.460938 48.285156 31.542969 C 48.285156 29.941406 49.007812 27.839844 55.089844 27.839844 C 60.503906 27.839844 62.527344 29.011719 63.355469 32.660156 C 63.4375 33.007812 63.726562 33.273438 64.101562 33.273438 L 67.542969 33.273438 C 67.757812 33.273438 67.941406 33.167969 68.101562 33.007812 C 68.234375 32.875 68.316406 32.660156 68.289062 32.421875 C 67.753906 26.132812 63.570312 23.179688 55.089844 23.179688 Z M 55.089844 23.179688 " fill-opacity="1" fill-rule="nonzero"/></g></svg>