<svg width="150" height="76" viewBox="0 0 150 76" fill="none" xmlns="http://www.w3.org/2000/svg">
<g id="mongodb-ar21">
<path id="Vector" d="M20.1839 7.03479L21.5464 9.59729C21.843 10.0595 22.1883 10.4886 22.5764 10.8773C23.7176 12.0185 24.8039 13.2148 25.7764 14.496C28.0864 17.5298 29.6451 20.8985 30.7589 24.546C31.4264 26.7735 31.7889 29.056 31.8164 31.366C31.9289 38.2698 29.5614 44.1985 24.7739 49.126C23.9981 49.9071 23.1604 50.6241 22.2689 51.2698C21.7939 51.2698 21.5726 50.8948 21.3776 50.5735C21.0026 49.9485 20.7926 49.2648 20.6814 48.5698C20.5139 47.7348 20.4026 46.8998 20.4589 46.036V45.646C20.4314 45.5623 20.0139 7.23104 20.1801 7.03604L20.1839 7.03479Z" fill="#599636"/>
<path id="Vector_2" d="M20.1838 6.9523C20.1275 6.8398 20.0713 6.9248 20.0163 6.9798C20.0438 7.53605 19.8488 8.0373 19.5413 8.51105C19.2075 8.98605 18.7613 9.34605 18.3163 9.73605C15.8388 11.8798 13.8913 14.4685 12.3313 17.3635C10.2713 21.261 9.18629 25.436 8.88129 29.8348C8.74379 31.4223 9.38129 37.0173 9.88379 38.631C11.2463 42.9185 13.6963 46.5085 16.8838 49.626C17.6638 50.376 18.4988 51.0735 19.3613 51.741C19.6113 51.741 19.64 51.5185 19.695 51.351C19.8047 50.9955 19.8883 50.6325 19.945 50.2648C20.195 48.8735 20.335 47.481 20.5013 46.0898L20.195 6.9523H20.1838Z" fill="#6CAC48"/>
<path id="Vector_3" d="M21.5498 52.9673C21.6061 52.3273 21.9248 51.7986 22.2461 51.2698C21.9123 51.1323 21.6611 50.8523 21.4661 50.5448C21.2986 50.2661 21.1598 49.9198 21.0486 49.6261C20.6586 48.4573 20.5736 47.2323 20.4636 46.0348V45.3098C20.3261 45.4223 20.2961 46.3673 20.2961 46.5073C20.2123 47.7873 20.0461 49.0411 19.7961 50.2648C19.7123 50.7648 19.6586 51.2673 19.3511 51.7123C19.3511 51.7686 19.3511 51.8248 19.3786 51.9073C19.8786 53.3823 20.0186 54.8861 20.1036 56.4173V56.9736C20.1036 57.6411 20.0761 57.5023 20.6323 57.7236C20.8548 57.8073 21.1073 57.8361 21.3286 58.0023C21.4961 58.0023 21.5236 57.8648 21.5236 57.7523L21.4398 56.8336V54.2711C21.4123 53.8261 21.4961 53.3798 21.5523 52.9623L21.5498 52.9673Z" fill="#C2BFBF"/>
<g id="Group">
<path id="Vector_4" d="M42.6884 41.3252V43.9763C42.6854 44.0813 42.6914 44.1864 42.7062 44.2903C42.7407 44.6043 42.9334 44.7958 43.2168 44.8839C43.4812 44.9535 43.7498 45.0059 44.0209 45.0409C44.1779 45.0587 44.2303 45.1277 44.2481 45.2961C44.266 45.8897 44.2137 45.9599 43.638 45.9241C42.2952 45.8539 40.9512 45.8373 39.6084 45.9241H39.4808C39.0621 45.942 39.0276 45.9063 39.0276 45.4876C39.0276 45.4174 39.0455 45.3306 39.0455 45.2604C39.0455 45.1328 39.1323 45.0689 39.2548 45.0689C39.5357 45.0345 39.796 44.9643 40.059 44.9119C40.4253 44.8251 40.6334 44.5979 40.6691 44.2316C40.7202 43.8308 40.7202 43.4122 40.7202 43.0101L40.738 38.3359C40.7438 38.2003 40.7108 38.0659 40.643 37.9484C40.5752 37.8309 40.4754 37.735 40.3551 37.6722C40.0395 37.4968 39.7056 37.3564 39.3595 37.2535C39.2548 37.219 39.1502 37.2025 39.0634 37.1488C38.8081 37.0263 38.8017 36.8004 39.0455 36.66C39.1323 36.6089 39.237 36.5732 39.3416 36.5553C40.4002 36.3991 41.4403 36.1361 42.4459 35.7703C42.6552 35.7001 42.7075 35.7193 42.7267 35.9273C42.7445 36.055 42.7267 36.2081 42.7088 36.3281C42.6743 36.5553 42.6743 36.7812 42.6743 36.9918C42.6743 37.0786 42.6922 37.1667 42.779 37.219C42.8658 37.2714 42.9539 37.219 43.0343 37.168C43.4006 36.8872 43.7669 36.6268 44.1677 36.4021C44.7421 36.0882 45.3548 35.8086 46.0185 35.7218C46.8227 35.6172 47.5183 35.8265 48.1297 36.3498C48.3825 36.5761 48.6051 36.8339 48.7921 37.1169C48.967 37.3722 48.9836 37.3786 49.2108 37.2037C49.8745 36.7149 50.5715 36.2796 51.322 35.9656C52.107 35.6338 52.9098 35.5827 53.7114 35.8609C54.5309 36.1571 55.0899 36.7327 55.4218 37.5177C55.7026 38.1457 55.8226 38.7941 55.8226 39.4706V44.1448C55.8226 44.4588 55.9502 44.6554 56.2591 44.8086C56.591 44.9362 56.9573 45 57.3058 45.0702C57.533 45.1213 57.533 45.1213 57.533 45.351C57.4985 45.9254 57.4462 45.9611 56.8871 45.9254C55.4871 45.8469 54.0839 45.8469 52.6839 45.9254C52.4031 45.9433 52.4031 45.9433 52.3878 45.6637V45.5769C52.3699 45.1047 52.3699 45.1047 52.8243 45.0026L53.2774 44.88C53.4309 44.8439 53.5678 44.7571 53.666 44.6337C53.7642 44.5103 53.8179 44.3574 53.8186 44.1997L53.8697 42.8914L53.8352 39.4732C53.8218 39.168 53.7571 38.8672 53.6438 38.5835C53.2072 37.519 52.2486 37.1361 51.3233 37.2407C50.6251 37.3109 50.0149 37.5892 49.4393 37.9913C49.3167 38.0781 49.23 38.1827 49.2478 38.3576C49.4048 39.4745 49.2989 40.5913 49.318 41.7069V44.1321C49.318 44.5686 49.4929 44.7779 49.9116 44.8826L50.7157 45.0575C50.8382 45.0753 50.9071 45.1276 50.9071 45.2668V45.3944C50.8893 45.8833 50.8561 45.905 50.366 45.8999C48.9708 45.8297 47.5745 45.8488 46.1972 45.8999C45.7249 45.9177 45.6867 45.8654 45.7084 45.3893C45.7262 45.1085 45.7594 45.0932 46.0223 45.0409L46.5967 44.9362C47.1073 44.8315 47.2949 44.6401 47.3294 44.0989L47.3804 42.9297L47.346 39.4234C47.3115 38.9869 47.2183 38.5682 46.9796 38.1674C46.6312 37.5216 46.0862 37.191 45.3395 37.1552C44.5889 37.1042 43.9265 37.3824 43.2972 37.7296C42.8607 37.9849 42.6692 38.2874 42.7037 38.7941V41.3406L42.6884 41.3252ZM75.552 41.4312V43.8908C75.5548 44.0657 75.5663 44.2404 75.5864 44.4141C75.5939 44.53 75.6387 44.6402 75.7142 44.7284C75.7897 44.8165 75.8918 44.8778 76.0051 44.903C76.3061 44.9907 76.6162 45.0434 76.9292 45.06C77.1041 45.0779 77.1385 45.1468 77.1564 45.2872V45.4097C77.1385 46.0199 77.0696 46.0901 76.4761 46.0556C75.1486 45.9688 73.825 45.9854 72.4988 46.0556L71.9883 46.0735C71.8836 46.0735 71.8606 46.0224 71.8313 45.9509C71.7803 45.7094 71.7803 45.4598 71.8313 45.2183C71.8491 45.1136 71.9181 45.0906 72.0227 45.0613C72.278 45.0268 72.495 44.9745 72.7375 44.9336C73.174 44.829 73.331 44.6528 73.3476 44.201L73.3987 42.7357V38.4444C73.3987 38.1304 73.2761 37.9389 72.9979 37.7985C72.6839 37.6237 72.352 37.5024 72.0023 37.3799C71.8976 37.3454 71.793 37.3097 71.7062 37.2573C71.479 37.1003 71.4509 36.8744 71.6717 36.6995C71.7707 36.6181 71.8924 36.5691 72.0202 36.5591C73.137 36.3843 74.2181 36.1405 75.2648 35.7218C75.3873 35.6708 75.4397 35.704 75.492 35.8086C75.5443 35.9133 75.5622 36.0358 75.543 36.1571L75.492 36.9765C75.492 37.0812 75.4409 37.2318 75.5265 37.2727C75.6311 37.3429 75.7013 37.1859 75.7881 37.145C76.3032 36.713 76.8721 36.3496 77.4806 36.0639C78.0218 35.8086 78.5783 35.6452 79.2076 35.681C80.3768 35.7512 81.2141 36.3447 81.754 37.3735C82.0348 37.9147 82.1548 38.5069 82.2072 39.1183L82.2582 40.3947L82.2761 44.2495C82.294 44.5456 82.3986 44.7383 82.6947 44.843C83.0017 44.9453 83.3169 45.0213 83.6367 45.0702C83.9175 45.1047 83.9329 45.157 83.9507 45.4187V45.5055C83.9163 46.099 83.8805 46.1156 83.287 46.0798C81.9856 46.0101 80.6813 46.0101 79.3799 46.0798C79.205 46.0977 79.0315 46.0798 78.8694 46.0977C78.7647 46.0977 78.6945 46.0798 78.6779 45.9752C78.6434 45.748 78.6077 45.5221 78.66 45.277C78.6779 45.1723 78.7302 45.12 78.8515 45.1021L79.6556 44.9745C79.9364 44.9043 80.0921 44.7192 80.1279 44.4639L80.1624 43.9751L80.1445 40.3296C80.1445 39.911 80.1266 39.4923 80.0398 39.0737C79.8305 38.1802 79.1502 37.542 78.2273 37.4526C77.4232 37.3658 76.6956 37.5752 76.0294 38.0104C75.6975 38.2197 75.5571 38.5159 75.5571 38.8822V41.5167C75.5571 41.4656 75.5571 41.4656 75.575 41.4656L75.552 41.4312Z" fill="#47474A"/>
<path id="Vector_5" d="M126.641 36.494C126.45 35.2202 125.977 34.0867 125.158 33.0924C124.444 32.214 123.52 31.53 122.471 31.1038C121.373 30.6506 120.203 30.5102 119.017 30.4758C118.528 30.4579 111.866 30.5626 111.377 30.4758C111.254 30.4579 111.167 30.4936 111.096 30.5983C111.009 30.7259 110.921 30.86 110.869 30.9991C110.659 31.4714 110.659 31.4356 111.165 31.5046C111.583 31.5748 111.984 31.6092 112.386 31.7318C112.753 31.8543 113.014 32.0636 113.101 32.4644C113.136 32.6559 113.171 38.7954 113.171 41.6571L113.101 43.6993C113.083 43.8563 113.067 44.0133 113.014 44.1525C112.944 44.3618 112.823 44.5354 112.613 44.6247C112.383 44.7331 112.135 44.798 111.881 44.8162C111.409 44.8672 111.34 44.8864 111.183 45.4097L111.132 45.6012C111.097 45.8284 111.114 45.8628 111.341 45.8628L116.556 45.9139L118.599 45.8794L120.012 45.7046C121.616 45.4084 123.047 44.7447 124.267 43.6815C124.964 43.0658 125.533 42.319 125.942 41.4835C126.431 40.507 126.64 39.4412 126.692 38.3614C126.779 37.7513 126.743 37.1233 126.641 36.4953V36.494ZM124.111 38.9702C124.041 40.0871 123.815 41.1682 123.24 42.1447C122.507 43.4185 121.46 44.3082 120.013 44.6209C119.385 44.7485 118.757 44.8124 118.098 44.7256C117.626 44.6745 117.174 44.6209 116.738 44.4639C115.953 44.1831 115.673 43.6981 115.656 42.9322L115.639 32.4146C115.639 31.7866 115.919 31.6488 116.371 31.6296C117.052 31.5786 117.75 31.5952 118.43 31.6641C119.154 31.7341 119.865 31.906 120.541 32.1747C121.044 32.3841 121.509 32.6728 121.92 33.0299C122.862 33.834 123.49 34.8424 123.834 36.0294C124.115 36.9893 124.166 37.9657 124.115 38.9422L124.111 38.9702ZM141.139 40.6806C141.139 40.576 141.139 40.4892 141.121 40.3845C140.964 39.4247 140.457 38.692 139.673 38.1342C139.168 37.7679 138.592 37.5241 137.999 37.3492C137.894 37.3148 137.807 37.279 137.703 37.2624C137.72 37.1756 137.773 37.1578 137.825 37.1399C138.174 36.965 138.505 36.7736 138.801 36.5119C139.343 36.0588 139.695 35.4997 139.883 34.8194C139.987 34.4531 139.987 34.0867 139.953 33.7025C139.924 33.2531 139.795 32.8158 139.575 32.4232C139.354 32.0305 139.048 31.6925 138.679 31.4344C137.875 30.8408 136.934 30.597 135.958 30.5792C134.074 30.5447 132.173 30.5792 130.29 30.5792C129.749 30.5792 129.209 30.6136 128.65 30.5281C128.546 30.5102 128.395 30.4771 128.318 30.5983C128.191 30.8255 128.038 31.0514 127.987 31.3131C127.969 31.4356 128.004 31.5046 128.144 31.5224L129.347 31.6973C129.819 31.7675 130.151 32.0292 130.184 32.4478C130.219 32.7372 130.236 33.0283 130.236 33.3196L130.201 36.5808L130.183 43.0343C130.183 43.4172 130.132 43.7848 130.061 44.1678C130.043 44.2893 129.992 44.4034 129.911 44.4962C129.831 44.589 129.725 44.6567 129.608 44.6911C129.259 44.7958 128.927 44.9004 128.561 44.9004C128.463 44.8911 128.365 44.9154 128.283 44.9692C128.2 45.023 128.139 45.1032 128.108 45.1966C128.038 45.3535 127.98 45.5284 127.951 45.6854C127.916 45.8947 127.969 45.9662 128.178 45.9407C128.335 45.9228 134.092 46.0632 135.173 45.9586C135.819 45.8884 136.449 45.8016 137.091 45.6101C138.189 45.2616 139.202 44.7549 140.004 43.8997C140.668 43.2015 141.051 42.3642 141.085 41.3878C141.136 41.1606 141.136 40.9346 141.136 40.6896L141.139 40.6806ZM132.679 33.5328L132.73 32.1377C132.73 31.876 132.834 31.7547 133.096 31.7011C133.515 31.6143 133.933 31.6501 134.352 31.6667C134.771 31.7011 135.171 31.7535 135.59 31.876C136.356 32.1032 136.951 32.5397 137.3 33.2711C137.459 33.6037 137.542 33.9672 137.544 34.3356C137.562 34.8245 137.526 35.2955 137.335 35.7652C137.039 36.4111 136.569 36.8297 135.887 36.9523C135.206 37.0748 133.271 37.0225 132.975 37.0225C132.713 37.0225 132.694 36.988 132.694 36.7263V35.0836C132.653 34.5728 132.647 34.0597 132.676 33.5481L132.679 33.5328ZM138.346 42.9169C138.05 43.7019 137.509 44.2444 136.741 44.5379C136.323 44.6949 135.904 44.7932 135.465 44.7651C134.924 44.7473 134.384 44.7651 133.844 44.6605C133.111 44.5035 132.779 43.8053 132.727 43.2998C132.64 42.4102 132.693 41.5026 132.676 40.8402V38.5375C132.676 38.2567 132.71 38.1712 133.008 38.1712L134.648 38.1891L135.765 38.3167C136.55 38.4916 137.265 38.789 137.824 39.3978C138.277 39.8867 138.522 40.479 138.574 41.1248C138.625 41.7349 138.592 42.3285 138.365 42.9041L138.346 42.9169Z" fill="#C2BFBF"/>
<path id="Vector_6" d="M94.0256 37.6619L94.4787 37.7321C94.9676 37.75 95.5432 37.5751 95.7168 36.8948C95.8126 36.5698 95.8126 36.2242 95.7168 35.8992C95.6122 35.8992 95.5598 35.986 95.5075 36.0217C95.2458 36.2311 94.9497 36.3536 94.6357 36.3881C94.0077 36.4583 93.3797 36.4225 92.7696 36.1966L91.9144 35.9005C91.318 35.7051 90.6903 35.6229 90.0636 35.658C89.174 35.7282 88.3367 36.0243 87.5517 36.4429C86.7143 36.8961 86.1221 37.5764 85.8413 38.5018C85.6843 39.043 85.6664 39.5995 85.7366 40.1586C85.9115 41.4324 86.5739 42.3221 87.7597 42.7931C87.8299 42.8109 87.8823 42.8441 87.9512 42.8633C88.1082 42.9501 88.1261 43.0381 87.9857 43.1594L87.5491 43.4555L86.5025 44.1014C86.2408 44.2584 86.2063 44.3822 86.2931 44.6592C86.397 44.985 86.5902 45.2751 86.8509 45.4965C87.0903 45.7019 87.3614 45.867 87.6538 45.9853C87.8452 46.0721 87.8452 46.113 87.6717 46.2662L86.6761 46.9809C86.3442 47.2362 86.0123 47.4915 85.7341 47.8183C85.5406 48.0253 85.4011 48.277 85.3281 48.5508C85.2551 48.8247 85.2507 49.1123 85.3154 49.3882C85.4451 49.9938 85.7622 50.543 86.2217 50.9582C86.6753 51.3782 87.2269 51.678 87.8261 51.83C88.8026 52.1108 89.8147 52.1261 90.8091 51.9347C92.2386 51.673 93.4895 51.0412 94.4723 49.9639C95.1527 49.2491 95.5535 48.4118 95.5892 47.4111C95.6273 46.8324 95.4589 46.2589 95.1139 45.7926C94.7689 45.3263 94.2698 44.9975 93.7052 44.8647L92.7632 44.6898L89.8849 44.4345C89.5709 44.4166 89.257 44.3643 88.9953 44.2073C88.6634 43.998 88.5766 43.5972 88.786 43.3355C88.943 43.1441 89.1344 43.0215 89.3795 43.0037L89.9373 42.9526C91.0404 42.8404 92.076 42.3686 92.8845 41.6098C93.3162 41.2102 93.6249 40.6957 93.7741 40.1267C93.9835 39.3761 93.9835 38.595 93.8086 37.8291C93.7576 37.6377 93.7741 37.6198 94.0179 37.6543L94.0256 37.6619ZM89.7496 46.3504C89.8543 46.3683 89.959 46.3504 90.0636 46.3504C90.7963 46.3849 91.5468 46.4372 92.2616 46.6312C92.495 46.7002 92.7225 46.7877 92.9419 46.8929C93.6401 47.2758 93.9018 47.9395 93.8137 48.6543C93.709 49.4393 93.2725 49.9971 92.5922 50.3647C92.1391 50.62 91.6323 50.731 91.109 50.7834C90.9176 50.8012 90.7427 50.7834 90.5512 50.7834C89.9411 50.8012 89.3476 50.7323 88.7719 50.4872C88.3711 50.3302 88.0393 50.1043 87.7431 49.789C87.133 49.1789 86.8497 48.0621 87.761 47.1545C88.3188 46.644 88.9481 46.2828 89.7496 46.3504ZM91.7383 40.9078C91.372 41.8319 90.5691 42.1115 89.7675 41.9889C89.0349 41.8843 88.4937 41.4835 88.1465 40.8197C87.6934 39.9301 87.5721 39.0072 87.8325 38.0461C88.0239 37.3313 88.4605 36.7901 89.2276 36.6676C90.204 36.4927 91.1422 36.8425 91.6349 37.8189C91.8902 38.2912 92.0012 38.8656 92.0012 39.685C91.9833 40.0169 91.9144 40.47 91.7396 40.9065L91.7383 40.9078ZM69.7611 39.7208C69.6041 38.7788 69.2557 37.9236 68.6098 37.2088C67.65 36.1443 66.4297 35.6771 65.0512 35.6733C63.8476 35.6554 62.7154 36.0051 61.7019 36.6331C60.7056 37.2294 59.9753 38.1844 59.6609 39.3021C59.3648 40.3143 59.3801 41.3443 59.6099 42.3719C60.22 45.1289 62.3491 46.3134 64.8942 46.1398C65.6447 46.0887 66.3595 45.8437 67.0386 45.5118C68.0508 45.0395 68.7834 44.2903 69.2889 43.296C69.6897 42.4765 69.8633 41.6035 69.8467 40.6091L69.7599 39.7195L69.7611 39.7208ZM67.2849 43.5934C67.1602 43.9858 66.9237 44.3335 66.6046 44.5937C66.2854 44.8539 65.8973 45.0155 65.4877 45.0587C64.7219 45.1633 64.0046 44.9719 63.36 44.5175C62.8946 44.1752 62.5178 43.7266 62.261 43.2092C61.5462 41.7439 61.4237 40.2096 61.7887 38.6396C61.9062 38.1538 62.1605 37.7117 62.5214 37.3658C63.1672 36.7723 63.9165 36.6331 64.7551 36.808C65.5592 36.9829 66.1681 37.4181 66.6697 38.0819C67.1713 38.7456 67.4023 39.5114 67.5415 40.3156C67.6117 40.7164 67.6117 41.135 67.6283 41.3967C67.6283 42.234 67.5581 42.9284 67.2964 43.5946L67.2849 43.5934ZM107.875 39.8612C107.747 38.849 107.369 37.9249 106.653 37.1577C105.711 36.129 104.49 35.6924 103.13 35.6746C101.961 35.6567 100.88 35.9885 99.8856 36.5642C98.7687 37.2279 98.0016 38.1686 97.7055 39.4425C97.3518 40.8322 97.5001 42.3022 98.1241 43.5934C98.6985 44.8149 99.6762 45.5999 100.968 45.9483C102.398 46.3313 103.759 46.1577 105.084 45.5118C106.236 44.954 107.055 44.0822 107.526 42.8952C107.807 42.197 107.909 41.4477 107.927 40.5747C107.945 40.4177 107.909 40.1381 107.876 39.8599L107.875 39.8612ZM105.467 43.3674C105.186 44.3094 104.596 44.9196 103.601 45.06C102.869 45.1646 102.172 44.9898 101.542 44.5711C101.001 44.2048 100.618 43.7159 100.339 43.1415C100.025 42.5314 99.8498 41.8855 99.7809 41.2231C99.6762 40.4036 99.6762 39.602 99.8677 38.7813C99.9042 38.6195 99.9568 38.4617 100.025 38.3103C100.514 37.0888 101.595 36.531 102.869 36.8106C103.724 37.002 104.368 37.4743 104.857 38.1891C105.329 38.8873 105.555 39.6544 105.661 40.4866C105.712 40.8185 105.732 41.1669 105.712 41.463C105.712 42.1434 105.661 42.7714 105.457 43.3815L105.467 43.3674Z" fill="#47474A"/>
</g>
</g>
</svg>
