<svg width="150" height="76" viewBox="0 0 150 76" fill="none" xmlns="http://www.w3.org/2000/svg">
<g id="mysql-ar21">
<g id="Group">
<path id="Vector" fill-rule="evenodd" clip-rule="evenodd" d="M22.5007 56.8962H26.0153V42.9729L31.5041 55.1122C32.1259 56.5714 33.0191 57.1119 34.7485 57.1119C36.4779 57.1119 37.3178 56.5708 37.9601 55.1122L43.4217 42.9729V56.8962H46.9636V42.9729C46.9636 41.6216 46.4224 40.9714 45.2868 40.6199C42.6103 39.8091 40.8257 40.5121 40.0149 42.3227L34.6352 54.3269L29.4439 42.3227C28.6597 40.5121 26.8479 39.8091 24.1447 40.6199C23.0358 40.9714 22.4952 41.621 22.4952 42.9729L22.4946 56.8962H22.5007ZM49.8892 45.5682H53.431V53.2198C53.4044 53.6518 53.5662 54.6256 55.4913 54.6517C56.4912 54.6789 63.1156 54.6517 63.1689 54.6517V45.5137H66.7108V58.0318C66.7108 61.1137 62.8932 61.7888 61.1141 61.8166H49.9764V59.4655H61.1426C63.4137 59.2219 63.1435 58.0869 63.1435 57.7082V56.7883H55.6537C52.1658 56.761 49.9213 55.2201 49.8952 53.4628V45.567L49.8892 45.5682ZM125.862 36.6999C123.699 36.6454 122.022 36.8623 120.616 37.4574C120.212 37.621 119.562 37.621 119.509 38.1336C119.725 38.3488 119.751 38.7008 119.941 38.999C120.265 39.5401 120.833 40.2691 121.347 40.6472C121.915 41.0805 122.483 41.5125 123.077 41.8912C124.131 42.5396 125.32 42.9184 126.348 43.5673C126.943 43.9461 127.537 44.4327 128.132 44.8387C128.435 45.055 128.619 45.4071 128.997 45.5416V45.4598C128.808 45.2174 128.754 44.8659 128.565 44.5945C128.295 44.3248 128.024 44.0806 127.753 43.8109C126.97 42.7566 125.996 41.8367 124.942 41.0805C124.076 40.4854 122.185 39.6746 121.833 38.6748L121.78 38.6202C122.374 38.5657 123.077 38.3494 123.645 38.187C124.565 37.9446 125.402 37.9979 126.348 37.7549C126.781 37.6458 127.213 37.5113 127.646 37.3762V37.1338C127.16 36.6472 126.808 35.9982 126.295 35.5389C124.916 34.3494 123.401 33.1865 121.833 32.2134C120.995 31.6728 119.913 31.3208 119.021 30.862C118.696 30.6996 118.156 30.6184 117.967 30.3482C117.479 29.7543 117.21 28.9696 116.858 28.2661C116.075 26.779 115.317 25.1302 114.642 23.562C114.155 22.5076 113.857 21.4532 113.263 20.48C110.478 15.8838 107.449 13.0994 102.799 10.3683C101.799 9.80048 100.61 9.55627 99.3451 9.25935L97.3175 9.15028C96.8843 8.96122 96.4522 8.44736 96.0735 8.20376C94.5325 7.23058 90.558 5.12181 89.4218 7.90683C88.6916 9.66413 90.5034 11.3942 91.1185 12.2868C91.579 12.9085 92.1729 13.6114 92.4983 14.3143C92.6801 14.7736 92.7407 15.2608 92.9303 15.7474C93.3624 16.9369 93.7684 18.2622 94.3362 19.3711C94.6392 19.9389 94.9573 20.5346 95.336 21.0478C95.5524 21.3447 95.9311 21.4805 96.0117 21.9671C95.6329 22.5082 95.6069 23.3184 95.3906 23.9952C94.4168 27.0505 94.7955 30.8354 96.1741 33.0787C96.6073 33.7543 97.6284 35.242 99.0136 34.6736C100.23 34.187 99.9589 32.646 100.31 31.2941C100.392 30.9699 100.338 30.7536 100.499 30.5366V30.5912L101.608 32.8351C102.446 34.1597 103.907 35.5389 105.123 36.4588C105.771 36.9453 106.285 37.784 107.096 38.0809V37.9991H107.043C106.88 37.7567 106.637 37.6477 106.42 37.4586C105.934 36.972 105.393 36.3769 105.015 35.8364C103.88 34.3227 102.88 32.646 101.987 30.916C101.554 30.0779 101.175 29.1587 100.825 28.3206C100.661 27.9958 100.661 27.5086 100.392 27.3474C99.9856 27.9413 99.3918 28.4564 99.093 29.1859C98.5792 30.3482 98.5258 31.7813 98.3368 33.2683C98.2277 33.2956 98.2762 33.2683 98.2277 33.3229C97.3636 33.1072 97.0655 32.214 96.7413 31.4577C95.9305 29.538 95.7947 26.4561 96.4977 24.2388C96.6867 23.671 97.4987 21.8865 97.1745 21.346C97.0109 20.8321 96.4716 20.5352 96.1735 20.1292C95.822 19.6153 95.4445 18.9669 95.2009 18.3991C94.5525 16.8842 94.2283 15.2087 93.5248 13.6944C93.1994 12.9915 92.6322 12.2613 92.1723 11.6129C91.6584 10.8827 91.0918 10.3689 90.6858 9.50416C90.5507 9.20724 90.3616 8.72004 90.578 8.39524C90.6313 8.17891 90.7404 8.09832 90.9555 8.04378C91.307 7.74686 92.308 8.12498 92.6595 8.28617C93.6593 8.69216 94.4974 9.07029 95.3354 9.63747C95.7141 9.90773 96.1201 10.4216 96.6067 10.5573H97.1751C98.0404 10.7464 99.013 10.6119 99.8232 10.8543C101.256 11.3148 102.554 11.9898 103.717 12.7206C107.258 14.9645 110.179 18.1549 112.152 21.9677C112.476 22.5894 112.612 23.1572 112.91 23.8062C113.478 25.1314 114.181 26.4827 114.748 27.7813C115.316 29.052 115.856 30.3506 116.667 31.405C117.073 31.9728 118.695 32.2697 119.424 32.5672C119.966 32.8096 120.803 33.0278 121.291 33.3247C122.209 33.8925 123.129 34.5415 123.993 35.1632C124.425 35.4868 125.778 36.163 125.859 36.7024L125.862 36.6999ZM98.2901 13.2054C97.9166 13.2021 97.5442 13.2475 97.1824 13.3405V13.3951H97.2357C97.4521 13.8277 97.8308 14.1253 98.1011 14.504L98.7234 15.802L98.7767 15.7474C99.1554 15.4772 99.3451 15.0445 99.3451 14.3961C99.1827 14.2071 99.156 14.0174 99.0209 13.8283C98.8585 13.5581 98.507 13.4223 98.2901 13.2066V13.2054Z" fill="#00678C"/>
<path id="Vector_2" fill-rule="evenodd" clip-rule="evenodd" d="M69.4097 56.8962H79.5754C80.7649 56.8962 81.9011 56.6538 82.8197 56.2205C84.3607 55.5176 85.0909 54.5723 85.0909 53.3283V50.7329C85.0909 49.7331 84.2528 48.7859 82.5773 48.1376C81.712 47.8134 80.6303 47.6237 79.576 47.6237H75.3039C73.8708 47.6237 73.1951 47.1904 73.0055 46.2451C72.9788 46.1373 72.9788 46.0288 72.9788 45.9209V44.3254C72.9788 44.2436 72.9788 44.1364 73.0055 44.0285C73.1945 43.2983 73.5733 43.1086 74.8234 42.9741H85.2321V40.6212H75.3366C73.9035 40.6212 73.1467 40.703 72.4704 40.9193C70.3883 41.5677 69.4691 42.5954 69.4691 44.406V46.4621C69.4691 48.0558 71.2536 49.4089 74.2816 49.7331C74.6058 49.7603 74.9573 49.7603 75.3088 49.7603H78.9591C79.0942 49.7603 79.2287 49.7603 79.3366 49.7876C80.4455 49.8955 80.9321 50.0845 81.2563 50.4893C81.4726 50.7056 81.5272 50.8953 81.5272 51.1389V53.1931C81.5272 53.4355 81.3648 53.7615 81.0406 54.0312C80.7164 54.3008 80.2013 54.4905 79.5257 54.5178C79.3905 54.5178 79.3106 54.545 79.1742 54.545H69.4097V56.8962ZM107.098 52.8144C107.098 55.2201 108.916 56.5714 112.533 56.8429C112.885 56.8701 113.209 56.8962 113.56 56.8962H122.753V54.545H113.48C111.424 54.545 110.64 54.0312 110.64 52.7877V40.6212H107.091V52.815L107.098 52.8144ZM87.3342 52.9217V44.5411C87.3342 42.4051 88.8479 41.1065 91.7959 40.7017C92.1201 40.6745 92.4443 40.6472 92.7412 40.6472H99.4456C99.7971 40.6472 100.095 40.6745 100.447 40.7017C103.393 41.1065 104.88 42.4045 104.88 44.5411V52.9217C104.88 54.6517 104.259 55.5716 102.798 56.1939L106.258 59.3291H102.176L99.3644 56.7883L96.5248 56.9507H92.74C92.0464 56.9473 91.3561 56.8567 90.6851 56.6811C88.4431 56.0581 87.3342 54.8692 87.3342 52.9217ZM91.1457 52.7338C91.1457 52.8417 91.2063 52.9489 91.2275 53.0853C91.4165 54.0579 92.3352 54.599 93.741 54.599H96.9321L94.0125 51.9491H98.0943L100.662 54.2748C101.15 54.0039 101.447 53.6252 101.555 53.1386C101.582 53.0307 101.582 52.8962 101.582 52.7871V44.7569C101.582 44.649 101.582 44.5418 101.555 44.4327C101.366 43.514 100.447 43.0008 99.0681 43.0008H93.7416C92.1734 43.0008 91.1463 43.6764 91.1463 44.7569L91.1457 52.7338Z" fill="#CE8B2C"/>
</g>
</g>
</svg>
