<svg width="708" height="530" viewBox="0 0 708 530" fill="none" xmlns="http://www.w3.org/2000/svg">
<path d="M421.337 25.723H253.371C227.248 25.723 206.07 46.9004 206.07 73.0241V456.842C206.07 482.966 227.248 504.143 253.371 504.143H421.337C447.46 504.143 468.638 482.966 468.638 456.842V73.0241C468.638 46.9004 447.46 25.723 421.337 25.723Z" fill="#262626"/>
<path d="M464.208 73.0273V456.843C464.195 468.209 459.674 479.106 451.636 487.144C443.599 495.181 432.702 499.702 421.336 499.715H253.373C242.007 499.702 231.109 495.181 223.072 487.144C215.035 479.106 210.514 468.209 210.5 456.843V73.0273C210.514 61.6608 215.035 50.7637 223.072 42.7264C231.109 34.689 242.007 30.1679 253.373 30.1547H275.337V37.7418C275.337 41.1766 276.702 44.4707 279.13 46.8994C281.559 49.3282 284.853 50.6928 288.288 50.693H386.42C389.855 50.6928 393.149 49.3282 395.578 46.8994C398.007 44.4707 399.371 41.1766 399.372 37.7418V30.1547H421.336C432.702 30.1679 443.599 34.689 451.636 42.7264C459.674 50.7637 464.195 61.6608 464.208 73.0273Z" fill="white"/>
<path d="M204.862 122.776C204.008 122.775 203.189 122.436 202.585 121.832C201.981 121.228 201.641 120.409 201.641 119.555V113.111C201.641 112.257 201.98 111.437 202.584 110.833C203.188 110.229 204.008 109.89 204.862 109.89C205.717 109.89 206.536 110.229 207.14 110.833C207.744 111.437 208.084 112.257 208.084 113.111V119.555C208.083 120.409 207.743 121.228 207.139 121.832C206.535 122.436 205.716 122.775 204.862 122.776Z" fill="#262626"/>
<path d="M204.862 155.816C204.008 155.815 203.189 155.475 202.585 154.871C201.981 154.267 201.641 153.448 201.641 152.594V134.858C201.641 134.003 201.98 133.184 202.584 132.58C203.188 131.975 204.008 131.636 204.862 131.636C205.717 131.636 206.536 131.975 207.14 132.58C207.744 133.184 208.084 134.003 208.084 134.858V152.594C208.083 153.448 207.743 154.267 207.139 154.871C206.535 155.475 205.716 155.815 204.862 155.816Z" fill="#262626"/>
<path d="M204.862 182.377C204.008 182.376 203.189 182.037 202.585 181.433C201.981 180.829 201.641 180.01 201.641 179.156V161.419C201.641 160.565 201.98 159.745 202.584 159.141C203.188 158.537 204.008 158.198 204.862 158.198C205.717 158.198 206.536 158.537 207.14 159.141C207.744 159.745 208.084 160.565 208.084 161.419V179.156C208.083 180.01 207.743 180.829 207.139 181.433C206.535 182.037 205.716 182.376 204.862 182.377Z" fill="#262626"/>
<path d="M469.04 167.88C468.186 167.879 467.367 167.539 466.763 166.935C466.159 166.331 465.82 165.512 465.819 164.658V121.38C465.819 120.526 466.158 119.706 466.762 119.102C467.366 118.498 468.186 118.158 469.04 118.158C469.895 118.158 470.714 118.498 471.318 119.102C471.923 119.706 472.262 120.526 472.262 121.38V164.658C472.261 165.512 471.921 166.331 471.317 166.935C470.713 167.539 469.894 167.879 469.04 167.88Z" fill="#262626"/>
<path d="M344.275 40.4992H319.306C318.772 40.4992 318.26 40.287 317.883 39.9094C317.505 39.5318 317.293 39.0196 317.293 38.4856C317.293 37.9516 317.505 37.4394 317.883 37.0618C318.26 36.6842 318.772 36.472 319.306 36.472H344.275C344.809 36.472 345.321 36.6842 345.698 37.0618C346.076 37.4394 346.288 37.9516 346.288 38.4856C346.288 39.0196 346.076 39.5318 345.698 39.9094C345.321 40.287 344.809 40.4992 344.275 40.4992Z" fill="white"/>
<path d="M357.161 40.0964C358.051 40.0964 358.772 39.3752 358.772 38.4856C358.772 37.596 358.051 36.8748 357.161 36.8748C356.272 36.8748 355.55 37.596 355.55 38.4856C355.55 39.3752 356.272 40.0964 357.161 40.0964Z" fill="white"/>
<path d="M265.741 49.1391H243.994C242.926 49.1391 241.902 48.7148 241.147 47.9595C240.392 47.2043 239.967 46.18 239.967 45.1119C239.967 44.0439 240.392 43.0196 241.147 42.2643C241.902 41.5091 242.926 41.0848 243.994 41.0848H265.741C266.809 41.0848 267.833 41.5091 268.588 42.2643C269.344 43.0196 269.768 44.0439 269.768 45.1119C269.768 46.18 269.344 47.2043 268.588 47.9595C267.833 48.7148 266.809 49.1391 265.741 49.1391Z" fill="#E6E6E6"/>
<path d="M408.3 48.7364C410.302 48.7364 411.925 47.1137 411.925 45.112C411.925 43.1103 410.302 41.4876 408.3 41.4876C406.298 41.4876 404.676 43.1103 404.676 45.112C404.676 47.1137 406.298 48.7364 408.3 48.7364Z" fill="#E6E6E6"/>
<path d="M419.576 48.7364C421.578 48.7364 423.2 47.1137 423.2 45.112C423.2 43.1103 421.578 41.4876 419.576 41.4876C417.574 41.4876 415.952 43.1103 415.952 45.112C415.952 47.1137 417.574 48.7364 419.576 48.7364Z" fill="#E6E6E6"/>
<path d="M430.852 48.7364C432.854 48.7364 434.476 47.1137 434.476 45.112C434.476 43.1103 432.854 41.4876 430.852 41.4876C428.85 41.4876 427.228 43.1103 427.228 45.112C427.228 47.1137 428.85 48.7364 430.852 48.7364Z" fill="#E6E6E6"/>
<path d="M405.766 105.425H269.086C266.438 105.429 263.9 106.482 262.028 108.354C260.156 110.227 259.103 112.765 259.099 115.412V204.258C259.103 206.906 260.156 209.444 262.028 211.316C263.9 213.189 266.438 214.242 269.086 214.246H405.766C408.414 214.243 410.953 213.19 412.826 211.318C414.698 209.445 415.751 206.907 415.753 204.258V115.412C415.751 112.764 414.698 110.225 412.826 108.353C410.953 106.48 408.414 105.428 405.766 105.425Z" fill="#F2F2F2"/>
<path d="M362.976 143.354C350.624 165.193 336.994 186.283 322.156 206.515H300.722C314.761 189.411 328.811 172.308 342.871 155.204C346.905 150.28 351.282 145.121 357.332 143.119L362.976 143.354Z" fill="#262626"/>
<path d="M334.491 139.852C332.256 142.181 330.114 144.605 328.097 147.122C323.657 152.469 319.28 157.862 314.886 163.24C312.15 166.586 309.415 169.932 306.71 173.277C305.851 172.726 305.036 172.109 304.271 171.432C299.951 167.683 297.272 162.391 296.807 156.689C296.342 150.988 298.129 145.331 301.784 140.932C305.44 136.532 310.673 133.739 316.363 133.152C322.053 132.564 327.747 134.228 332.224 137.788C333.031 138.418 333.789 139.108 334.491 139.852Z" fill="#262626"/>
<path d="M415.753 137.312V140.558L414.304 140.026L393.902 132.568C387.257 130.144 380.629 127.373 373.767 125.625C367.796 123.917 361.456 123.999 355.532 125.859C350.251 127.813 345.419 130.812 341.324 134.678C339.512 136.353 337.756 138.069 336.057 139.849C335.501 140.437 334.945 141.025 334.398 141.613C332.755 143.401 331.168 145.229 329.662 147.122C325.224 152.47 320.842 157.866 316.453 163.238C313.714 166.589 310.976 169.931 308.27 173.274C299.233 184.332 290.25 195.412 281.32 206.514C280.118 206.5 278.921 206.349 277.752 206.063C286.862 194.746 296.014 183.46 305.209 172.203C305.419 171.945 305.628 171.687 305.837 171.429C306.917 170.084 308.02 168.731 309.115 167.386C313.698 161.772 318.284 156.164 322.872 150.561C326.207 146.486 329.517 142.394 333.109 138.528C333.326 138.278 333.552 138.037 333.786 137.787C334.132 137.417 334.478 137.054 334.833 136.676C342.637 128.613 352.375 121.485 364.037 121.292C370.899 121.187 377.528 123.362 383.907 125.657C390.777 128.146 397.623 130.675 404.485 133.188L415.753 137.312Z" fill="#262626"/>
<path d="M418.967 410.407H255.741C253.094 410.404 250.555 409.351 248.683 407.479C246.811 405.606 245.758 403.068 245.755 400.42V378.422C245.758 375.774 246.811 373.236 248.683 371.364C250.555 369.492 253.094 368.439 255.741 368.436H418.967C421.615 368.439 424.153 369.492 426.025 371.364C427.897 373.236 428.951 375.774 428.954 378.422V400.42C428.951 403.068 427.897 405.606 426.025 407.479C424.153 409.351 421.615 410.404 418.967 410.407Z" fill="#F2F2F2"/>
<path d="M418.967 297.648H255.741C253.094 297.645 250.555 296.592 248.683 294.72C246.811 292.847 245.758 290.309 245.755 287.661V265.663C245.758 263.015 246.811 260.477 248.683 258.605C250.555 256.733 253.094 255.68 255.741 255.677H418.967C421.615 255.68 424.153 256.733 426.025 258.605C427.897 260.477 428.951 263.015 428.954 265.663V287.661C428.951 290.309 427.897 292.847 426.025 294.72C424.153 296.592 421.615 297.645 418.967 297.648Z" fill="#F2F2F2"/>
<path d="M418.967 354.027H255.741C253.094 354.024 250.555 352.971 248.683 351.099C246.811 349.227 245.758 346.689 245.755 344.041V322.043C245.758 319.395 246.811 316.857 248.683 314.984C250.555 313.112 253.094 312.059 255.741 312.056H418.967C421.615 312.059 424.153 313.112 426.025 314.984C427.897 316.857 428.951 319.395 428.954 322.043V344.041C428.951 346.689 427.897 349.227 426.025 351.099C424.153 352.971 421.615 354.024 418.967 354.027Z" fill="#F2F2F2"/>
<path d="M357.185 385.656H309.092C308.521 385.656 307.974 385.43 307.57 385.026C307.167 384.623 306.94 384.075 306.94 383.505C306.94 382.934 307.167 382.387 307.57 381.984C307.974 381.58 308.521 381.353 309.092 381.353H357.185C357.755 381.353 358.303 381.58 358.706 381.984C359.11 382.387 359.336 382.934 359.336 383.505C359.336 384.075 359.11 384.623 358.706 385.026C358.303 385.43 357.755 385.656 357.185 385.656Z" fill="white"/>
<path d="M403.44 397.489H308.554C307.983 397.489 307.436 397.262 307.033 396.859C306.629 396.455 306.402 395.908 306.402 395.338C306.402 394.767 306.629 394.22 307.033 393.816C307.436 393.413 307.983 393.186 308.554 393.186H403.44C404.011 393.186 404.558 393.413 404.961 393.816C405.365 394.22 405.592 394.767 405.592 395.338C405.592 395.908 405.365 396.455 404.961 396.859C404.558 397.262 404.011 397.489 403.44 397.489Z" fill="white"/>
<path d="M283.542 403.846C291.508 403.846 297.966 397.388 297.966 389.421C297.966 381.455 291.508 374.997 283.542 374.997C275.575 374.997 269.117 381.455 269.117 389.421C269.117 397.388 275.575 403.846 283.542 403.846Z" fill="white"/>
<path d="M418.967 466.786H255.741C253.094 466.783 250.555 465.73 248.683 463.858C246.811 461.986 245.758 459.447 245.755 456.8V434.802C245.758 432.154 246.811 429.616 248.683 427.743C250.555 425.871 253.094 424.818 255.741 424.815H418.967C421.615 424.818 424.153 425.871 426.025 427.743C427.897 429.616 428.951 432.154 428.954 434.802V456.8C428.951 459.447 427.897 461.986 426.025 463.858C424.153 465.73 421.615 466.783 418.967 466.786Z" fill="#F2F2F2"/>
<path d="M357.185 442.036H309.092C308.521 442.036 307.974 441.809 307.57 441.406C307.167 441.002 306.94 440.455 306.94 439.884C306.94 439.314 307.167 438.767 307.57 438.363C307.974 437.96 308.521 437.733 309.092 437.733H357.185C357.755 437.733 358.303 437.96 358.706 438.363C359.11 438.767 359.336 439.314 359.336 439.884C359.336 440.455 359.11 441.002 358.706 441.406C358.303 441.809 357.755 442.036 357.185 442.036Z" fill="white"/>
<path d="M403.44 453.869H308.554C307.983 453.869 307.436 453.642 307.033 453.238C306.629 452.835 306.402 452.288 306.402 451.717C306.402 451.147 306.629 450.599 307.033 450.196C307.436 449.792 307.983 449.566 308.554 449.566H403.44C404.011 449.566 404.558 449.792 404.961 450.196C405.365 450.599 405.592 451.147 405.592 451.717C405.592 452.288 405.365 452.835 404.961 453.238C404.558 453.642 404.011 453.869 403.44 453.869Z" fill="white"/>
<path d="M283.542 460.225C291.508 460.225 297.966 453.767 297.966 445.801C297.966 437.834 291.508 431.376 283.542 431.376C275.575 431.376 269.117 437.834 269.117 445.801C269.117 453.767 275.575 460.225 283.542 460.225Z" fill="white"/>
<path d="M549.445 297.648H386.22C383.572 297.645 381.034 296.592 379.161 294.72C377.289 292.847 376.236 290.309 376.233 287.661V265.663C376.236 263.015 377.289 260.477 379.161 258.605C381.034 256.733 383.572 255.68 386.22 255.677H549.445C552.093 255.68 554.631 256.733 556.503 258.605C558.376 260.477 559.429 263.015 559.432 265.663V287.661C559.429 290.309 558.376 292.847 556.503 294.72C554.631 296.592 552.093 297.645 549.445 297.648Z" fill="#E6E6E6"/>
<path d="M487.663 272.897H439.57C438.999 272.897 438.452 272.671 438.049 272.267C437.645 271.864 437.419 271.316 437.419 270.746C437.419 270.175 437.645 269.628 438.049 269.224C438.452 268.821 438.999 268.594 439.57 268.594H487.663C488.234 268.594 488.781 268.821 489.184 269.224C489.588 269.628 489.814 270.175 489.814 270.746C489.814 271.316 489.588 271.864 489.184 272.267C488.781 272.671 488.234 272.897 487.663 272.897Z" fill="white"/>
<path d="M533.918 284.73H439.032C438.462 284.73 437.914 284.503 437.511 284.1C437.107 283.696 436.881 283.149 436.881 282.579C436.881 282.008 437.107 281.461 437.511 281.057C437.914 280.654 438.462 280.427 439.032 280.427H533.918C534.489 280.427 535.036 280.654 535.44 281.057C535.843 281.461 536.07 282.008 536.07 282.579C536.07 283.149 535.843 283.696 535.44 284.1C535.036 284.503 534.489 284.73 533.918 284.73Z" fill="white"/>
<path d="M414.02 291.087C421.986 291.087 428.444 284.629 428.444 276.662C428.444 268.696 421.986 262.237 414.02 262.237C406.053 262.237 399.595 268.696 399.595 276.662C399.595 284.629 406.053 291.087 414.02 291.087Z" fill="white"/>
<path d="M497.093 354.027H333.867C331.22 354.024 328.681 352.971 326.809 351.099C324.937 349.227 323.884 346.689 323.881 344.041V322.043C323.884 319.395 324.937 316.857 326.809 314.984C328.681 313.112 331.22 312.059 333.867 312.056H497.093C499.741 312.059 502.279 313.112 504.151 314.984C506.023 316.857 507.076 319.395 507.079 322.043V344.041C507.076 346.689 506.023 349.227 504.151 351.099C502.279 352.971 499.741 354.024 497.093 354.027Z" fill="#E6E6E6"/>
<path d="M435.311 329.277H387.218C386.647 329.277 386.1 329.05 385.696 328.647C385.293 328.243 385.066 327.696 385.066 327.125C385.066 326.555 385.293 326.008 385.696 325.604C386.1 325.201 386.647 324.974 387.218 324.974H435.311C435.881 324.974 436.428 325.201 436.832 325.604C437.235 326.008 437.462 326.555 437.462 327.125C437.462 327.696 437.235 328.243 436.832 328.647C436.428 329.05 435.881 329.277 435.311 329.277Z" fill="white"/>
<path d="M481.566 341.109H386.68C386.109 341.109 385.562 340.883 385.158 340.479C384.755 340.076 384.528 339.529 384.528 338.958C384.528 338.387 384.755 337.84 385.158 337.437C385.562 337.033 386.109 336.807 386.68 336.807H481.566C482.137 336.807 482.684 337.033 483.087 337.437C483.491 337.84 483.718 338.387 483.718 338.958C483.718 339.529 483.491 340.076 483.087 340.479C482.684 340.883 482.137 341.109 481.566 341.109Z" fill="white"/>
<path d="M361.667 347.466C369.634 347.466 376.092 341.008 376.092 333.042C376.092 325.075 369.634 318.617 361.667 318.617C353.701 318.617 347.243 325.075 347.243 333.042C347.243 341.008 353.701 347.466 361.667 347.466Z" fill="white"/>
</svg>
