<svg width="708" height="530" viewBox="0 0 708 530" fill="none" xmlns="http://www.w3.org/2000/svg">
<path d="M274.778 113.705H272.505V51.4387C272.505 46.7061 271.573 42.0199 269.762 37.6475C267.951 33.2752 265.296 29.3024 261.95 25.9559C258.604 22.6095 254.631 19.9549 250.258 18.1438C245.886 16.3327 241.2 15.4006 236.467 15.4006H104.547C94.9895 15.4006 85.823 19.1974 79.0646 25.9558C72.3061 32.7143 68.5092 41.8807 68.5092 51.4386V393.037C68.5092 402.595 72.3061 411.761 79.0645 418.52C85.8229 425.278 94.9894 429.075 104.547 429.075H236.467C241.2 429.075 245.886 428.143 250.258 426.332C254.631 424.521 258.603 421.866 261.95 418.52C265.296 415.173 267.951 411.201 269.762 406.828C271.573 402.456 272.505 397.77 272.505 393.037V158.027H274.778V113.705Z" fill="#262626"/>
<path d="M237.921 24.7765H220.701C221.493 26.718 221.796 28.8244 221.582 30.9102C221.368 32.996 220.644 34.9972 219.474 36.7375C218.305 38.4778 216.725 39.9037 214.875 40.8897C213.024 41.8758 210.96 42.3916 208.863 42.3917H133.288C131.191 42.3916 129.127 41.8758 127.276 40.8898C125.426 39.9037 123.846 38.4778 122.676 36.7375C121.507 34.9972 120.783 32.996 120.569 30.9102C120.355 28.8243 120.658 26.7179 121.45 24.7764H105.366C98.2285 24.7764 91.3831 27.6119 86.3359 32.659C81.2888 37.7061 78.4533 44.5515 78.4533 51.6892V392.786C78.4533 396.321 79.1494 399.82 80.5019 403.085C81.8544 406.351 83.8368 409.318 86.3359 411.817C88.835 414.316 91.8018 416.298 95.067 417.651C98.3323 419.003 101.832 419.699 105.366 419.699H237.921C241.456 419.699 244.955 419.003 248.22 417.651C251.486 416.298 254.452 414.316 256.952 411.817C259.451 409.318 261.433 406.351 262.786 403.086C264.138 399.82 264.834 396.321 264.834 392.786V51.6893C264.834 48.155 264.138 44.6554 262.786 41.3902C261.433 38.125 259.451 35.1581 256.952 32.659C254.452 30.16 251.486 28.1776 248.22 26.8251C244.955 25.4726 241.456 24.7765 237.921 24.7765Z" fill="white"/>
<path d="M236.647 152.53C236.656 160.278 235.275 167.966 232.567 175.226C231.338 178.551 229.83 181.766 228.059 184.838C222.366 194.771 214.151 203.026 204.245 208.766C194.339 214.507 183.093 217.53 171.643 217.53C160.194 217.53 148.948 214.507 139.042 208.766C129.136 203.026 120.921 194.771 115.228 184.838C114.652 183.839 114.105 182.825 113.589 181.796C109.17 173.031 106.794 163.379 106.638 153.564C106.482 143.75 108.551 134.027 112.689 125.126C116.827 116.225 122.927 108.377 130.532 102.17C138.136 95.9632 147.048 91.5591 156.597 89.288C166.147 87.0169 176.087 86.9378 185.671 89.0567C195.256 91.1756 204.236 95.4374 211.938 101.522C219.64 107.608 225.864 115.358 230.144 124.192C234.423 133.026 236.646 142.714 236.647 152.53Z" fill="#F1F1F1"/>
<path d="M175.023 163.504C181.886 163.504 187.45 157.94 187.45 151.077C187.45 144.213 181.886 138.649 175.023 138.649C168.16 138.649 162.596 144.213 162.596 151.077C162.596 157.94 168.16 163.504 175.023 163.504Z" fill="#63F137"/>
<path d="M113.589 181.796C119.064 175.879 126.384 166.484 133.249 173.272C136.694 176.474 142.086 184.409 147.248 179.222L187.554 138.915C188.313 138.166 189.214 137.576 190.204 137.18C191.194 136.784 192.253 136.59 193.319 136.609C194.385 136.628 195.437 136.86 196.412 137.291C197.387 137.723 198.266 138.345 198.998 139.12L232.567 175.226C231.338 178.551 229.83 181.766 228.059 184.838H115.228L113.589 181.796Z" fill="#262626"/>
<path d="M202.143 284.531C201.699 284.532 201.273 284.709 200.958 285.024C200.644 285.339 200.468 285.766 200.468 286.21C200.468 286.655 200.644 287.082 200.958 287.396C201.273 287.711 201.699 287.889 202.143 287.89H219.766C220.211 287.89 220.638 287.713 220.953 287.398C221.268 287.083 221.445 286.656 221.445 286.21C221.445 285.765 221.268 285.338 220.953 285.023C220.638 284.708 220.211 284.531 219.766 284.531H202.143Z" fill="#262626"/>
<path d="M122.751 259.865C122.306 259.865 121.879 260.042 121.564 260.357C121.249 260.672 121.072 261.099 121.072 261.545C121.072 261.99 121.249 262.417 121.564 262.732C121.879 263.047 122.306 263.224 122.751 263.224H220.536C220.982 263.224 221.409 263.047 221.724 262.732C222.039 262.417 222.216 261.99 222.216 261.545C222.216 261.099 222.039 260.672 221.724 260.357C221.409 260.042 220.982 259.865 220.536 259.865H122.751Z" fill="#E5E5E5"/>
<path d="M122.751 272.198C122.306 272.199 121.88 272.376 121.566 272.691C121.252 273.006 121.075 273.433 121.075 273.877C121.075 274.322 121.252 274.749 121.566 275.064C121.88 275.378 122.306 275.556 122.751 275.557H220.536C220.757 275.557 220.976 275.514 221.18 275.43C221.384 275.346 221.57 275.222 221.726 275.066C221.883 274.91 222.007 274.725 222.091 274.521C222.176 274.317 222.219 274.098 222.219 273.877C222.219 273.657 222.176 273.438 222.091 273.234C222.007 273.03 221.883 272.845 221.726 272.689C221.57 272.533 221.384 272.409 221.18 272.325C220.976 272.241 220.757 272.198 220.536 272.198H122.751Z" fill="#E5E5E5"/>
<path d="M202.143 363.667C201.698 363.667 201.271 363.843 200.956 364.158C200.641 364.473 200.464 364.9 200.464 365.346C200.464 365.791 200.641 366.218 200.956 366.533C201.271 366.848 201.698 367.025 202.143 367.025H219.765C220.211 367.025 220.638 366.848 220.953 366.533C221.268 366.218 221.445 365.791 221.445 365.346C221.445 364.9 221.268 364.473 220.953 364.158C220.638 363.843 220.211 363.667 219.765 363.667H202.143Z" fill="#262626"/>
<path d="M122.751 339.001C122.306 339.001 121.879 339.178 121.564 339.493C121.249 339.808 121.072 340.235 121.072 340.68C121.072 341.126 121.249 341.553 121.564 341.868C121.879 342.183 122.306 342.359 122.751 342.359H220.536C220.757 342.36 220.976 342.317 221.18 342.233C221.384 342.148 221.57 342.025 221.726 341.869C221.883 341.713 222.007 341.528 222.091 341.324C222.176 341.12 222.219 340.901 222.219 340.68C222.219 340.459 222.176 340.241 222.091 340.037C222.007 339.833 221.883 339.647 221.726 339.491C221.57 339.335 221.384 339.212 221.18 339.128C220.976 339.043 220.757 339 220.536 339.001H122.751Z" fill="#E5E5E5"/>
<path d="M122.751 351.334C122.306 351.334 121.879 351.511 121.564 351.826C121.249 352.14 121.072 352.568 121.072 353.013C121.072 353.458 121.249 353.885 121.564 354.2C121.879 354.515 122.306 354.692 122.751 354.692H220.536C220.982 354.692 221.409 354.515 221.724 354.2C222.039 353.885 222.216 353.458 222.216 353.013C222.216 352.568 222.039 352.14 221.724 351.826C221.409 351.511 220.982 351.334 220.536 351.334H122.751Z" fill="#E5E5E5"/>
<path d="M538.223 181.561L537.996 182.062L596.884 208.689L597.11 208.188L596.884 208.689C598.6 209.465 600.48 209.807 602.359 209.685C604.239 209.563 606.059 208.98 607.66 207.989C609.261 206.997 610.594 205.627 611.541 204C612.352 202.605 612.859 201.058 613.032 199.459L625.732 205.202C628.42 206.417 630.842 208.15 632.861 210.302C634.879 212.453 636.454 214.981 637.495 217.742C638.536 220.502 639.024 223.44 638.929 226.389C638.835 229.337 638.161 232.238 636.945 234.926L516.767 500.707C514.313 506.136 509.802 510.367 504.227 512.47C498.653 514.573 492.472 514.375 487.043 511.92L383.757 465.218C381.069 464.002 378.646 462.269 376.628 460.117C374.61 457.966 373.035 455.438 371.994 452.678C370.953 449.917 370.465 446.979 370.559 444.031C370.654 441.082 371.328 438.181 372.543 435.493L492.721 169.712C495.176 164.284 499.687 160.052 505.261 157.949C510.836 155.847 517.017 156.044 522.446 158.499L534.26 163.841C533.174 165.026 532.347 166.429 531.836 167.959C531.239 169.745 531.091 171.651 531.404 173.508C531.717 175.365 532.482 177.117 533.632 178.608C534.781 180.1 536.28 181.286 537.996 182.062L538.223 181.561Z" fill="#E4E4E4" stroke="#262626" stroke-width="1.1"/>
<path d="M506.422 331.251C497.378 327.143 489.574 320.728 483.795 312.649C478.016 304.569 474.465 295.111 473.5 285.225C473.403 284.245 473.333 283.237 473.291 282.232C472.898 273.416 474.601 264.633 478.261 256.604C481.666 249.084 486.678 242.403 492.946 237.032C499.214 231.661 506.583 227.731 514.536 225.518C522.488 223.306 530.828 222.865 538.969 224.228C547.11 225.59 554.853 228.722 561.652 233.403C568.45 238.084 574.139 244.2 578.316 251.319C582.494 258.438 585.058 266.387 585.829 274.605C586.599 282.823 585.557 291.11 582.776 298.882C579.995 306.653 575.542 313.72 569.732 319.583C567.57 321.773 565.227 323.777 562.728 325.573C554.667 331.378 545.219 334.958 535.336 335.955C525.452 336.952 515.48 335.329 506.422 331.251ZM552.227 229.952C538.992 223.986 523.931 223.514 510.348 228.639C496.766 233.763 485.771 244.067 479.775 257.288C476.223 265.081 474.569 273.605 474.951 282.161C474.991 283.137 475.059 284.113 475.153 285.064C476.075 294.664 479.515 303.851 485.126 311.696C490.737 319.54 498.32 325.764 507.108 329.738C515.896 333.712 525.578 335.295 535.174 334.327C544.77 333.359 553.94 329.874 561.757 324.225C564.181 322.482 566.454 320.538 568.552 318.414C574.772 312.136 579.38 304.447 581.985 296.002C584.589 287.557 585.112 278.607 583.508 269.916C581.904 261.226 578.222 253.052 572.775 246.093C567.328 239.134 560.278 233.596 552.227 229.952Z" fill="white"/>
<path d="M511.984 227.117L510.433 227.711L549.907 330.762L551.459 330.168L511.984 227.117Z" fill="white"/>
<path d="M579.977 259.259L476.923 298.727L477.518 300.278L580.572 260.811L579.977 259.259Z" fill="white"/>
<path d="M528.87 411.767L431.385 367.687C430.663 367.359 430.1 366.758 429.82 366.016C429.54 365.274 429.566 364.451 429.892 363.727L439.062 343.446C439.39 342.724 439.991 342.161 440.733 341.881C441.475 341.601 442.299 341.626 443.022 341.953L540.506 386.032C541.229 386.36 541.792 386.961 542.072 387.703C542.352 388.445 542.326 389.268 542 389.992L532.83 410.273C532.502 410.995 531.901 411.558 531.159 411.838C530.416 412.118 529.593 412.093 528.87 411.767ZM442.337 343.466C442.016 343.321 441.649 343.31 441.319 343.434C440.989 343.559 440.722 343.809 440.576 344.131L431.406 364.412C431.261 364.733 431.249 365.1 431.374 365.43C431.498 365.76 431.749 366.027 432.07 366.173L529.554 410.253C529.876 410.398 530.242 410.409 530.573 410.285C530.903 410.16 531.17 409.91 531.316 409.588L540.486 389.307C540.631 388.986 540.643 388.619 540.518 388.289C540.394 387.959 540.143 387.692 539.822 387.546L442.337 343.466Z" fill="white"/>
<path d="M505.255 463.992L407.771 419.913C407.048 419.585 406.485 418.984 406.205 418.242C405.925 417.499 405.951 416.676 406.277 415.953L415.447 395.672C415.775 394.95 416.376 394.387 417.118 394.106C417.861 393.826 418.684 393.852 419.407 394.178L516.891 438.258C517.614 438.586 518.177 439.186 518.457 439.929C518.737 440.671 518.711 441.494 518.385 442.217L509.215 462.498C508.887 463.221 508.286 463.784 507.544 464.064C506.801 464.344 505.978 464.318 505.255 463.992ZM418.722 395.692C418.401 395.547 418.035 395.535 417.704 395.66C417.374 395.785 417.107 396.035 416.961 396.357L407.791 416.637C407.646 416.959 407.634 417.325 407.759 417.656C407.883 417.986 408.134 418.253 408.455 418.399L505.94 462.478C506.261 462.623 506.627 462.635 506.958 462.51C507.288 462.386 507.555 462.135 507.701 461.814L516.871 441.533C517.016 441.211 517.028 440.845 516.903 440.515C516.779 440.185 516.528 439.917 516.207 439.772L418.722 395.692Z" fill="white"/>
<path d="M467.578 331.846C465.573 321.861 461.243 312.488 454.938 304.489C448.529 296.366 440.701 289.472 431.835 284.14C422.671 278.575 412.69 274.483 402.257 272.013C389.29 268.898 375.899 267.883 362.591 268.011C349.187 268.14 335.825 269.396 322.504 270.795C320.811 270.972 319.118 271.152 317.425 271.334C315.847 271.502 315.829 273.996 317.425 273.826C330.55 272.424 343.694 271.047 356.894 270.623C369.987 270.203 383.176 270.718 396.061 273.216C406.792 275.208 417.145 278.868 426.743 284.064C435.683 288.907 443.702 295.285 450.433 302.905C457.027 310.354 461.796 319.236 464.361 328.847C464.671 330.059 464.94 331.28 465.175 332.509C465.476 334.082 467.878 333.416 467.578 331.846Z" fill="#63F137"/>
<path d="M326.325 253.5L306.421 274.672C306.288 274.808 306.188 274.972 306.128 275.152C306.067 275.332 306.049 275.523 306.073 275.712C306.097 275.9 306.164 276.08 306.268 276.239C306.372 276.398 306.51 276.531 306.673 276.629L324.63 285.213C326.07 285.901 327.336 283.753 325.888 283.061L307.931 274.477L308.183 276.434L328.087 255.262C329.185 254.094 327.427 252.329 326.325 253.5Z" fill="#63F137"/>
</svg>
