<svg width="708" height="530" viewBox="0 0 708 530" fill="none" xmlns="http://www.w3.org/2000/svg">
<path d="M653.255 26.9331H46.2549C43.9429 26.9352 41.7262 27.8546 40.0914 29.4895C38.4566 31.1243 37.5372 33.3411 37.5352 35.6531V446.973C37.5372 449.285 38.4566 451.502 40.0914 453.137C41.7262 454.772 43.9429 455.691 46.2549 455.693H653.255C654.516 455.693 655.761 455.42 656.906 454.891C658.051 454.363 659.067 453.592 659.885 452.633C659.955 452.558 660.018 452.478 660.075 452.393C660.596 451.757 661.017 451.045 661.325 450.283C661.764 449.235 661.988 448.109 661.985 446.973V35.6531C661.983 33.3395 661.062 31.1215 659.425 29.4864C657.788 27.8513 655.569 26.933 653.255 26.9331ZM659.495 446.973C659.496 448.19 659.138 449.379 658.465 450.393C657.867 451.285 657.056 452.014 656.105 452.513C655.224 452.968 654.247 453.205 653.255 453.203H46.2549C44.6033 453.201 43.0198 452.544 41.8519 451.376C40.684 450.208 40.0269 448.625 40.0249 446.973V35.6531C40.0269 34.0014 40.684 32.418 41.8519 31.2501C43.0198 30.0821 44.6033 29.4251 46.2549 29.4231H653.255C654.908 29.4229 656.494 30.0789 657.664 31.247C658.834 32.4151 659.493 33.9998 659.495 35.6531V446.973Z" fill="#3F3D56"/>
<path d="M660.735 61.8823H38.7779V64.3751H660.735V61.8823Z" fill="#3F3D56"/>
<path d="M59.9668 53.1076C64.097 53.1076 67.4452 49.7594 67.4452 45.6292C67.4452 41.499 64.097 38.1508 59.9668 38.1508C55.8366 38.1508 52.4883 41.499 52.4883 45.6292C52.4883 49.7594 55.8366 53.1076 59.9668 53.1076Z" fill="#3F3D56"/>
<path d="M81.4673 53.1076C85.5975 53.1076 88.9457 49.7594 88.9457 45.6292C88.9457 41.499 85.5975 38.1508 81.4673 38.1508C77.3371 38.1508 73.9888 41.499 73.9888 45.6292C73.9888 49.7594 77.3371 53.1076 81.4673 53.1076Z" fill="#3F3D56"/>
<path d="M102.968 53.1076C107.098 53.1076 110.446 49.7594 110.446 45.6292C110.446 41.499 107.098 38.1508 102.968 38.1508C98.8376 38.1508 95.4894 41.499 95.4894 45.6292C95.4894 49.7594 98.8376 53.1076 102.968 53.1076Z" fill="#3F3D56"/>
<path d="M586.981 242.604H101.981C97.4734 242.599 93.1524 240.807 89.9653 237.62C86.7783 234.433 84.9856 230.112 84.9805 225.604V122.604C84.9856 118.097 86.7783 113.776 89.9653 110.589C93.1524 107.402 97.4734 105.61 101.981 105.604H586.981C591.488 105.61 595.809 107.402 598.996 110.589C602.183 113.776 603.975 118.097 603.981 122.604V225.604C603.975 230.112 602.183 234.433 598.996 237.62C595.809 240.807 591.488 242.599 586.981 242.604ZM101.981 107.604C98.0037 107.609 94.191 109.191 91.3789 112.003C88.5668 114.815 86.985 118.628 86.9805 122.604V225.604C86.985 229.581 88.5668 233.394 91.3789 236.206C94.191 239.018 98.0037 240.6 101.981 240.604H586.981C590.957 240.6 594.77 239.018 597.582 236.206C600.394 233.394 601.976 229.581 601.981 225.604V122.604C601.976 118.628 600.394 114.815 597.582 112.003C594.77 109.191 590.957 107.609 586.981 107.604H101.981Z" fill="#F2F2F2"/>
<path d="M208.981 428.605H101.981C97.4734 428.599 93.1524 426.807 89.9653 423.62C86.7783 420.433 84.9856 416.112 84.9805 411.605V335.604C84.9856 331.097 86.7783 326.776 89.9653 323.589C93.1524 320.402 97.4734 318.61 101.981 318.604H208.981C213.488 318.61 217.809 320.402 220.996 323.589C224.183 326.776 225.975 331.097 225.981 335.604V411.605C225.975 416.112 224.183 420.433 220.996 423.62C217.809 426.807 213.488 428.599 208.981 428.605ZM101.981 320.604C98.0037 320.609 94.191 322.191 91.3789 325.003C88.5668 327.815 86.985 331.628 86.9805 335.604V411.605C86.985 415.581 88.5668 419.394 91.3789 422.206C94.191 425.018 98.0037 426.6 101.981 426.605H208.981C212.957 426.6 216.77 425.018 219.582 422.206C222.394 419.394 223.976 415.581 223.981 411.605V335.604C223.976 331.628 222.394 327.815 219.582 325.003C216.77 322.191 212.957 320.609 208.981 320.604H101.981Z" fill="#F2F2F2"/>
<path d="M586.981 428.605H479.981C475.474 428.599 471.152 426.807 467.965 423.62C464.778 420.433 462.986 416.112 462.981 411.605V335.604C462.986 331.097 464.778 326.776 467.965 323.589C471.152 320.402 475.474 318.61 479.981 318.604H586.981C591.488 318.61 595.809 320.402 598.996 323.589C602.183 326.776 603.976 331.097 603.981 335.604V411.605C603.976 416.112 602.183 420.433 598.996 423.62C595.809 426.807 591.488 428.599 586.981 428.605ZM479.981 320.604C476.004 320.609 472.191 322.191 469.379 325.003C466.567 327.815 464.985 331.628 464.981 335.604V411.605C464.985 415.581 466.567 419.394 469.379 422.206C472.191 425.018 476.004 426.6 479.981 426.605H586.981C590.958 426.6 594.77 425.018 597.582 422.206C600.394 419.394 601.976 415.581 601.981 411.605V335.604C601.976 331.628 600.394 327.815 597.582 325.003C594.77 322.191 590.958 320.609 586.981 320.604H479.981Z" fill="#F2F2F2"/>
<path d="M405.981 428.605H298.981C294.474 428.599 290.152 426.807 286.965 423.62C283.778 420.433 281.986 416.112 281.981 411.605V335.604C281.986 331.097 283.778 326.776 286.965 323.589C290.152 320.402 294.474 318.61 298.981 318.604H405.981C410.488 318.61 414.809 320.402 417.996 323.589C421.183 326.776 422.976 331.097 422.981 335.604V411.605C422.976 416.112 421.183 420.433 417.996 423.62C414.809 426.807 410.488 428.599 405.981 428.605ZM298.981 320.604C295.004 320.609 291.191 322.191 288.379 325.003C285.567 327.815 283.985 331.628 283.981 335.604V411.605C283.985 415.581 285.567 419.394 288.379 422.206C291.191 425.018 295.004 426.6 298.981 426.605H405.981C409.958 426.6 413.77 425.018 416.582 422.206C419.394 419.394 420.976 415.581 420.981 411.605V335.604C420.976 331.628 419.394 327.815 416.582 325.003C413.77 322.191 409.958 320.609 405.981 320.604H298.981Z" fill="#F2F2F2"/>
<path d="M90.9312 110.294L90.456 112.237L602.743 237.576L603.218 235.633L90.9312 110.294Z" fill="#F2F2F2"/>
<path d="M598.019 110.263L90.4608 236.004L90.9417 237.946L598.5 112.205L598.019 110.263Z" fill="#F2F2F2"/>
<path d="M606.981 277.104H121.981C117.606 277.099 113.412 275.359 110.319 272.266C107.226 269.173 105.486 264.979 105.481 260.604V157.604C105.486 153.23 107.226 149.036 110.319 145.942C113.412 142.849 117.606 141.109 121.981 141.104H606.981C611.355 141.109 615.549 142.849 618.642 145.943C621.736 149.036 623.476 153.23 623.481 157.604V260.604C623.476 264.979 621.736 269.173 618.642 272.266C615.549 275.359 611.355 277.099 606.981 277.104Z" fill="white"/>
<path d="M288.687 323.12L287.457 324.697L415.623 424.675L416.853 423.098L288.687 323.12Z" fill="#F2F2F2"/>
<path d="M416.263 323.121L289.779 424.331L291.029 425.893L417.512 324.682L416.263 323.121Z" fill="#F2F2F2"/>
<path d="M91.6864 323.121L90.4562 324.698L218.622 424.676L219.852 423.099L91.6864 323.121Z" fill="#F2F2F2"/>
<path d="M219.263 323.121L92.779 424.331L94.0285 425.893L220.512 324.682L219.263 323.121Z" fill="#F2F2F2"/>
<path d="M469.688 323.119L468.458 324.696L596.624 424.674L597.854 423.097L469.688 323.119Z" fill="#F2F2F2"/>
<path d="M597.263 323.121L470.779 424.332L472.029 425.893L598.512 324.682L597.263 323.121Z" fill="#F2F2F2"/>
<path d="M420.981 501.104H313.981C309.606 501.1 305.412 499.36 302.319 496.266C299.226 493.173 297.486 488.979 297.481 484.604V408.604C297.486 404.23 299.226 400.036 302.319 396.943C305.412 393.849 309.606 392.109 313.981 392.104H420.981C425.355 392.109 429.549 393.849 432.642 396.943C435.736 400.036 437.476 404.23 437.481 408.604V484.604C437.476 488.979 435.736 493.173 432.642 496.266C429.549 499.36 425.355 501.1 420.981 501.104Z" fill="#262626"/>
<path d="M476.866 502.604H257.866C257.601 502.604 257.347 502.499 257.159 502.312C256.972 502.124 256.866 501.87 256.866 501.604C256.866 501.339 256.972 501.085 257.159 500.897C257.347 500.71 257.601 500.604 257.866 500.604H476.866C477.132 500.604 477.386 500.71 477.573 500.897C477.761 501.085 477.866 501.339 477.866 501.604C477.866 501.87 477.761 502.124 477.573 502.312C477.386 502.499 477.132 502.604 476.866 502.604Z" fill="#CCCCCC"/>
<path d="M381.433 441.104H353.433C351.312 441.104 349.277 440.262 347.776 438.761C346.276 437.261 345.433 435.226 345.433 433.104C345.433 430.983 346.276 428.948 347.776 427.448C349.277 425.947 351.312 425.104 353.433 425.104H381.433C383.555 425.104 385.59 425.947 387.09 427.448C388.59 428.948 389.433 430.983 389.433 433.104C389.433 435.226 388.59 437.261 387.09 438.761C385.59 440.262 383.555 441.104 381.433 441.104Z" fill="white"/>
<path d="M397.981 468.104H336.981C334.859 468.104 332.824 467.262 331.324 465.761C329.824 464.261 328.981 462.226 328.981 460.104C328.981 457.983 329.824 455.948 331.324 454.448C332.824 452.947 334.859 452.104 336.981 452.104H397.981C400.102 452.104 402.137 452.947 403.637 454.448C405.138 455.948 405.981 457.983 405.981 460.104C405.981 462.226 405.138 464.261 403.637 465.761C402.137 467.262 400.102 468.104 397.981 468.104Z" fill="white"/>
<path d="M225.981 443.105H118.981C114.606 443.1 110.412 441.36 107.319 438.266C104.225 435.173 102.485 430.979 102.481 426.605V350.604C102.485 346.23 104.225 342.036 107.319 338.943C110.412 335.849 114.606 334.109 118.981 334.104H225.981C230.355 334.109 234.549 335.849 237.642 338.943C240.736 342.036 242.476 346.23 242.481 350.604V426.605C242.476 430.979 240.736 435.173 237.642 438.266C234.549 441.36 230.355 443.1 225.981 443.105Z" fill="#262626"/>
<path d="M186.433 383.104H158.433C156.312 383.104 154.277 382.262 152.776 380.761C151.276 379.261 150.433 377.226 150.433 375.104C150.433 372.983 151.276 370.948 152.776 369.448C154.277 367.947 156.312 367.104 158.433 367.104H186.433C188.555 367.104 190.59 367.947 192.09 369.448C193.59 370.948 194.433 372.983 194.433 375.104C194.433 377.226 193.59 379.261 192.09 380.761C190.59 382.262 188.555 383.104 186.433 383.104Z" fill="white"/>
<path d="M202.981 410.104H141.981C139.859 410.104 137.824 409.262 136.324 407.761C134.823 406.261 133.981 404.226 133.981 402.104C133.981 399.983 134.823 397.948 136.324 396.448C137.824 394.947 139.859 394.104 141.981 394.104H202.981C205.102 394.104 207.137 394.947 208.637 396.448C210.138 397.948 210.981 399.983 210.981 402.104C210.981 404.226 210.138 406.261 208.637 407.761C207.137 409.262 205.102 410.104 202.981 410.104Z" fill="white"/>
<path d="M609.981 472.104H502.981C498.606 472.1 494.412 470.36 491.319 467.266C488.226 464.173 486.486 459.979 486.481 455.604V379.604C486.486 375.23 488.226 371.036 491.319 367.943C494.412 364.849 498.606 363.109 502.981 363.104H609.981C614.355 363.109 618.549 364.849 621.642 367.943C624.736 371.036 626.476 375.23 626.481 379.604V455.604C626.476 459.979 624.736 464.173 621.642 467.266C618.549 470.36 614.355 472.1 609.981 472.104Z" fill="#E6E6E6"/>
<path d="M570.433 412.104H542.433C540.312 412.104 538.277 411.262 536.776 409.761C535.276 408.261 534.433 406.226 534.433 404.104C534.433 401.983 535.276 399.948 536.776 398.448C538.277 396.947 540.312 396.104 542.433 396.104H570.433C572.555 396.104 574.59 396.947 576.09 398.448C577.59 399.948 578.433 401.983 578.433 404.104C578.433 406.226 577.59 408.261 576.09 409.761C574.59 411.262 572.555 412.104 570.433 412.104Z" fill="white"/>
<path d="M586.981 439.104H525.981C523.859 439.104 521.824 438.262 520.324 436.761C518.823 435.261 517.981 433.226 517.981 431.104C517.981 428.983 518.823 426.948 520.324 425.448C521.824 423.947 523.859 423.104 525.981 423.104H586.981C589.102 423.104 591.137 423.947 592.637 425.448C594.138 426.948 594.981 428.983 594.981 431.104C594.981 433.226 594.138 435.261 592.637 436.761C591.137 438.262 589.102 439.104 586.981 439.104Z" fill="white"/>
<path d="M665.866 473.604H446.866C446.601 473.604 446.347 473.499 446.159 473.312C445.972 473.124 445.866 472.87 445.866 472.604C445.866 472.339 445.972 472.085 446.159 471.897C446.347 471.71 446.601 471.604 446.866 471.604H665.866C666.132 471.604 666.386 471.71 666.574 471.897C666.761 472.085 666.866 472.339 666.866 472.604C666.866 472.87 666.761 473.124 666.574 473.312C666.386 473.499 666.132 473.604 665.866 473.604Z" fill="#CCCCCC"/>
<path d="M473.251 275.34V276.604H259.55V275.281L260.701 273.653L328.451 178.006C328.764 177.572 329.177 177.218 329.654 176.973C330.131 176.729 330.66 176.602 331.196 176.602C331.732 176.602 332.26 176.729 332.737 176.973C333.215 177.218 333.627 177.572 333.941 178.006L379.371 242.144L411.711 196.889C412.025 196.456 412.437 196.104 412.913 195.861C413.389 195.618 413.916 195.492 414.451 195.492C414.985 195.492 415.512 195.618 415.988 195.861C416.465 196.104 416.877 196.456 417.191 196.889L472.101 273.722L473.251 275.34Z" fill="#262626"/>
<path d="M259.107 211.702C272.844 211.702 283.981 200.566 283.981 186.828C283.981 173.091 272.844 161.955 259.107 161.955C245.37 161.955 234.234 173.091 234.234 186.828C234.234 200.566 245.37 211.702 259.107 211.702Z" fill="#262626"/>
<path d="M606.981 277.604H121.981C117.473 277.599 113.152 275.807 109.965 272.62C106.778 269.433 104.986 265.112 104.981 260.604V157.604C104.986 153.097 106.778 148.776 109.965 145.589C113.152 142.402 117.473 140.61 121.981 140.604H606.981C611.488 140.61 615.809 142.402 618.996 145.589C622.183 148.776 623.975 153.097 623.981 157.604V260.604C623.975 265.112 622.183 269.433 618.996 272.62C615.809 275.807 611.488 277.599 606.981 277.604ZM121.981 142.604C118.004 142.609 114.191 144.191 111.379 147.003C108.567 149.815 106.985 153.628 106.981 157.604V260.604C106.985 264.581 108.567 268.394 111.379 271.206C114.191 274.018 118.004 275.6 121.981 275.604H606.981C610.957 275.6 614.77 274.018 617.582 271.206C620.394 268.394 621.976 264.581 621.981 260.604V157.604C621.976 153.628 620.394 149.815 617.582 147.003C614.77 144.191 610.957 142.609 606.981 142.604H121.981Z" fill="#3F3D56"/>
</svg>
