<svg width="320" height="240" viewBox="0 0 320 240" fill="none" xmlns="http://www.w3.org/2000/svg">
<g clip-path="url(#clip0_735_31783)">
<path d="M311.135 211.599H9.1245C4.0856 211.591 0.00851166 208.052 0 203.677V37.0177C0.00851166 32.643 4.0856 29.1033 9.1245 29.0959H311.135C316.174 29.1033 320.251 32.643 320.26 37.0177V203.684C320.251 208.052 316.174 211.591 311.135 211.599ZM9.1245 30.8547C5.20914 30.8621 2.03429 33.611 2.03429 37.0103V203.677C2.0428 207.076 5.20914 209.832 9.1245 209.832H311.135C315.051 209.825 318.226 207.076 318.226 203.677V37.0177C318.217 33.6184 315.051 30.8621 311.135 30.8621H9.1245V30.8547Z" fill="white"/>
<path d="M92.9416 152.141C112.669 152.141 128.661 136.149 128.661 116.422C128.661 96.6948 112.669 80.7026 92.9416 80.7026C73.2143 80.7026 57.2222 96.6948 57.2222 116.422C57.2222 136.149 73.2143 152.141 92.9416 152.141Z" fill="#CCCCCC"/>
<path d="M82.139 159.291C62.1145 159.291 45.8784 143.054 45.8784 123.03C45.8784 103.005 62.1145 86.7693 82.139 86.7693C102.164 86.7693 118.4 103.005 118.4 123.03C118.378 143.049 102.158 159.269 82.139 159.291ZM82.139 87.8571C62.7098 87.8571 46.9608 103.606 46.9608 123.035C46.9608 142.465 62.7098 158.214 82.139 158.214C101.568 158.214 117.317 142.465 117.317 123.035C117.296 103.612 101.557 87.8788 82.139 87.8571Z" fill="#3F3D56"/>
<path d="M59.3655 58.5618L25.957 116.422H92.774L59.3655 58.5618L25.957 116.422H92.774L59.3655 58.5618Z" fill="#63F137"/>
<path d="M249.147 116.201C249.147 95.8353 231.937 84.6379 212.275 79.3286C187.071 72.5257 168.611 86.2885 175.403 116.201C176.945 122.977 180.625 130.894 185.188 137.67H221.367C233.452 129.796 249.147 132.004 249.147 116.201Z" fill="#63F137"/>
<path d="M230.497 61.8963V119.264C230.497 124.335 226.368 128.464 221.297 128.464H163.929C158.858 128.464 154.729 124.335 154.729 119.264V61.8963C154.729 56.8252 158.858 52.6958 163.929 52.6958H221.297C226.368 52.6958 230.497 56.8252 230.497 61.8963ZM221.297 127.382C225.778 127.382 229.415 123.745 229.415 119.264V90.3419C229.415 70.1496 213.043 53.7782 192.851 53.7782H163.929C159.448 53.7782 155.811 57.4151 155.811 61.8963V119.264C155.811 123.745 159.448 127.382 163.929 127.382H221.297Z" fill="#3F3D56"/>
<path d="M185.815 172.838H167.295C166.83 172.838 166.451 172.459 166.451 171.993C166.451 171.528 166.83 171.149 167.295 171.149H185.815C186.281 171.149 186.66 171.528 186.66 171.993C186.66 172.459 186.286 172.838 185.815 172.838Z" fill="#3F3D56"/>
<path d="M271.326 46.5424H252.806C252.34 46.5424 251.961 46.1635 251.961 45.6981C251.961 45.2326 252.34 44.8484 252.806 44.8484H271.326C271.791 44.8484 272.17 45.2272 272.17 45.6927C272.17 46.1581 271.797 46.5424 271.326 46.5424Z" fill="#3F3D56"/>
<path d="M271.326 64.597H252.806C252.34 64.597 251.961 64.2182 251.961 63.7527C251.961 63.2873 252.34 62.9084 252.806 62.9084H271.326C271.791 62.9084 272.17 63.2873 272.17 63.7527C272.17 64.2182 271.797 64.597 271.326 64.597Z" fill="#3F3D56"/>
<path d="M281.268 55.575H242.869C242.404 55.575 242.025 55.1962 242.025 54.7308C242.025 54.2653 242.404 53.8865 242.869 53.8865H281.268C281.733 53.8865 282.112 54.2653 282.112 54.7308C282.112 55.1962 281.733 55.575 281.268 55.575Z" fill="#3F3D56"/>
<path d="M242.934 187.997H162.858C158.073 187.997 154.188 184.111 154.188 179.332V150.123C154.188 145.344 158.073 141.453 162.858 141.453H242.939C247.718 141.453 251.61 145.339 251.61 150.123V179.332C251.604 184.111 247.718 187.997 242.934 187.997ZM162.858 142.536C158.674 142.536 155.27 145.94 155.27 150.123V179.332C155.27 183.515 158.674 186.92 162.858 186.92H242.939C247.123 186.92 250.527 183.515 250.527 179.332V150.123C250.527 145.94 247.123 142.536 242.939 142.536H162.858Z" fill="#3F3D56"/>
<path d="M273.685 137.665H264.019C247.626 137.665 234.286 124.329 234.286 107.931V98.2705C234.286 94.9259 237.008 92.2036 240.347 92.2036H273.68C277.024 92.2036 279.741 94.9259 279.741 98.2705V131.603C279.747 134.948 277.024 137.665 273.685 137.665ZM240.347 93.286C237.598 93.286 235.368 95.5158 235.368 98.2651V107.931C235.368 123.756 248.195 136.582 264.019 136.582H273.685C276.435 136.582 278.664 134.353 278.664 131.603V110.372C278.664 100.939 271.017 93.286 261.579 93.286H240.347Z" fill="#3F3D56"/>
<path d="M211.733 154.691C213.79 150.767 216.399 147.937 219.278 145.783H185.388C194.112 158.241 205.677 166.24 211.733 154.691Z" fill="#63F137"/>
</g>
<defs>
<clipPath id="clip0_735_31783">
<rect width="320" height="239.1" fill="white" transform="translate(0 0.0959473)"/>
</clipPath>
</defs>
</svg>
