<svg width="150" height="76" viewBox="0 0 150 76" fill="none" xmlns="http://www.w3.org/2000/svg">
<g id="springio-ar21">
<path id="Vector" d="M48.9623 17.1735C48.3076 18.7436 47.4693 20.2306 46.4648 21.6035C40.4923 15.6335 31.7711 13.3373 23.6336 15.6035C15.4961 17.8698 9.1961 24.2998 7.1461 32.4923C5.0961 40.6848 7.60735 49.3423 13.7248 55.1673L14.5911 55.9323C17.8976 58.7172 21.91 60.5333 26.1844 61.1798C30.4589 61.8263 34.8289 61.278 38.8111 59.5955C42.7933 57.913 46.2326 55.1619 48.7486 51.6464C51.2646 48.1309 52.7593 43.9881 53.0673 39.676C53.7048 33.7073 51.9548 26.1548 48.9623 17.176V17.1735ZM17.0586 55.301C16.5486 55.931 15.7086 56.1923 14.9311 55.9635C14.1536 55.7348 13.5911 55.0573 13.5061 54.251C13.4211 53.4448 13.8311 52.6673 14.5436 52.2798C15.2561 51.8923 16.1311 51.9748 16.7611 52.4848C17.6198 53.181 17.7523 54.4423 17.0561 55.3023L17.0586 55.301ZM48.8636 48.281C43.0786 55.9873 30.7261 53.3885 22.8048 53.761C22.8048 53.761 21.4011 53.8435 19.9873 54.076C19.9873 54.076 20.5198 53.8485 21.2023 53.5923C26.7648 51.6548 29.3936 51.2835 32.7724 49.5448C39.1348 46.311 45.4261 39.2285 46.7348 31.866C44.3148 38.9485 36.9661 45.0385 30.2761 47.5123C25.6911 49.2023 17.4086 50.8473 17.4086 50.8473L17.0748 50.6685C11.4373 47.9298 11.2623 35.7248 21.4998 31.7885C25.9998 30.0598 30.2811 31.0085 35.1273 29.851C40.3023 28.621 46.2898 24.7435 48.7273 19.6848C51.4523 27.7785 54.7348 40.4348 48.8486 48.2848L48.8636 48.281Z" fill="#68BD45"/>
<g id="Group">
<path id="Vector_2" d="M58.0711 45.7269C57.8386 45.5869 57.6484 45.3866 57.5205 45.1474C57.3926 44.9081 57.3317 44.6387 57.3444 44.3677C57.342 44.1587 57.3815 43.9513 57.4605 43.7577C57.5395 43.5641 57.6564 43.3884 57.8044 43.2407C57.9524 43.093 58.1285 42.9765 58.3222 42.8979C58.5159 42.8194 58.7234 42.7804 58.9325 42.7832C59.227 42.7849 59.516 42.8625 59.7718 43.0086C61.2153 44.0287 62.9267 44.6025 64.6935 44.6586C66.3764 44.6586 67.3462 43.9313 67.3462 42.8046V42.7426C67.3462 41.4162 65.5278 40.9613 63.5262 40.3466C61.004 39.6193 58.1866 38.5981 58.1866 35.3308V35.2651C58.1866 32.0263 60.8728 30.0596 64.2713 30.0596C66.1379 30.0944 67.9693 30.5728 69.6145 31.4551C69.8945 31.5911 70.1307 31.8028 70.2965 32.0662C70.4622 32.3296 70.5508 32.6342 70.5522 32.9455C70.5537 33.1569 70.5127 33.3665 70.4316 33.5618C70.3505 33.757 70.2309 33.934 70.08 34.0822C69.9292 34.2303 69.7501 34.3466 69.5533 34.4241C69.3566 34.5017 69.1463 34.5389 68.9349 34.5335C68.6639 34.5384 68.3966 34.4707 68.1605 34.3374C66.7686 33.6101 65.3438 33.1708 64.1622 33.1708C62.6434 33.1708 61.7663 33.8982 61.7663 34.8537V34.9193C61.7663 36.1815 63.6203 36.7006 65.6191 37.3474C68.1128 38.1318 70.9259 39.2556 70.9259 42.3304V42.396C70.9259 45.9871 68.142 47.7656 64.583 47.7656C62.2572 47.7495 59.9892 47.0394 58.0696 45.7261L58.0711 45.7269ZM72.4041 32.0384C72.3988 31.7808 72.445 31.5248 72.54 31.2853C72.6351 31.0458 72.777 30.8277 72.9575 30.6438C73.138 30.4599 73.3534 30.314 73.5911 30.2145C73.8287 30.115 74.0839 30.0641 74.3416 30.0646C74.6012 30.0631 74.8586 30.1131 75.0987 30.2118C75.3389 30.3104 75.5571 30.4558 75.7407 30.6393C75.9242 30.8229 76.0696 31.0411 76.1682 31.2813C76.2669 31.5214 76.3169 31.7788 76.3154 32.0384V33.2236C77.5776 31.4423 79.3574 30.0175 82.1306 30.0175C86.1289 30.0175 90.058 33.1872 90.058 38.8862V38.9518C90.058 44.6137 86.1717 47.8169 82.1306 47.8169C79.2783 47.8169 77.4956 46.3922 76.3154 44.8077V50.8404C76.3154 51.36 76.109 51.8584 75.7416 52.2258C75.3741 52.5932 74.8758 52.7996 74.3562 52.7996C73.8366 52.7996 73.3382 52.5932 72.9708 52.2258C72.6034 51.8584 72.397 51.36 72.397 50.8404L72.4041 32.0384ZM86.0954 38.9447V38.8791C86.0954 35.5789 83.8599 33.4268 81.2065 33.4268C78.5531 33.4268 76.2234 35.6374 76.2234 38.8791V38.9447C76.2234 42.2156 78.5531 44.3969 81.2065 44.3969C83.8599 44.3969 86.0954 42.3105 86.0954 38.9347V38.9447ZM91.5576 32.042C91.5523 31.7841 91.5986 31.5277 91.6939 31.288C91.7891 31.0483 91.9314 30.83 92.1122 30.6461C92.2931 30.4622 92.509 30.3163 92.7471 30.217C92.9852 30.1178 93.2407 30.0672 93.4987 30.0682C93.7584 30.0662 94.016 30.1159 94.2564 30.2144C94.4967 30.3128 94.7151 30.4582 94.8988 30.6418C95.0825 30.8255 95.2278 31.0439 95.3263 31.2843C95.4248 31.5247 95.4745 31.7822 95.4725 32.042V32.9833C95.6686 31.5286 98.0639 30.0753 99.776 30.0753C100.036 30.057 100.296 30.0946 100.54 30.1857C100.784 30.2768 101.005 30.4191 101.189 30.6032C101.373 30.7872 101.516 31.0086 101.607 31.2524C101.698 31.4962 101.735 31.7567 101.717 32.0163C101.732 32.4649 101.583 32.9036 101.297 33.2497C101.011 33.5958 100.609 33.8254 100.165 33.8953C97.3814 34.3788 95.4732 36.8033 95.4732 40.1869V45.8203C95.4718 46.0775 95.4196 46.332 95.3195 46.569C95.2194 46.806 95.0734 47.0209 94.89 47.2013C94.7065 47.3817 94.4892 47.524 94.2506 47.6201C94.0119 47.7162 93.7566 47.7642 93.4994 47.7613C93.244 47.7632 92.9907 47.7143 92.7543 47.6174C92.518 47.5205 92.3033 47.3776 92.1226 47.197C91.942 47.0164 91.7991 46.8017 91.7022 46.5653C91.6054 46.329 91.5565 46.0757 91.5584 45.8203L91.5576 32.042ZM103.2 32.0505C103.195 31.7928 103.241 31.5366 103.337 31.2971C103.432 31.0576 103.574 30.8395 103.755 30.6557C103.936 30.4719 104.152 30.326 104.39 30.2266C104.627 30.1271 104.883 30.0762 105.141 30.0767C105.4 30.0752 105.658 30.1252 105.898 30.2239C106.138 30.3225 106.356 30.4679 106.54 30.6515C106.723 30.8351 106.869 31.0533 106.967 31.2934C107.066 31.5336 107.116 31.7909 107.114 32.0505V45.8324C107.095 46.3386 106.88 46.8176 106.515 47.1689C106.15 47.5203 105.664 47.7165 105.157 47.7165C104.65 47.7165 104.163 47.5203 103.798 47.1689C103.434 46.8176 103.219 46.3386 103.2 45.8324V32.0505ZM109.092 32.0577C109.086 31.7998 109.133 31.5434 109.228 31.3037C109.323 31.0639 109.465 30.8457 109.646 30.6618C109.827 30.4778 110.043 30.332 110.281 30.2327C110.519 30.1335 110.775 30.0828 111.033 30.0839C111.292 30.0823 111.55 30.1324 111.79 30.231C112.03 30.3297 112.248 30.475 112.432 30.6586C112.615 30.8422 112.761 31.0604 112.859 31.3005C112.958 31.5407 113.008 31.7981 113.007 32.0577V32.8606C113.576 31.9712 114.369 31.2463 115.306 30.7579C116.243 30.2695 117.291 30.0347 118.346 30.0767C122.195 30.0767 124.431 32.6652 124.431 36.6193V45.8224C124.435 46.0785 124.388 46.3329 124.292 46.5704C124.196 46.8079 124.053 47.0237 123.872 47.2048C123.691 47.3859 123.475 47.5288 123.238 47.6247C123 47.7207 122.746 47.7679 122.49 47.7634C122.231 47.7702 121.973 47.725 121.732 47.6304C121.491 47.5359 121.271 47.3939 121.086 47.2129C120.9 47.032 120.753 46.8157 120.653 46.5768C120.553 46.338 120.501 46.0815 120.502 45.8224V37.8244C120.502 35.1717 119.176 33.6479 116.845 33.6479C114.58 33.6479 112.996 35.2359 112.996 37.8893V45.8203C112.977 46.3265 112.762 46.8055 112.397 47.1568C112.032 47.5081 111.545 47.7044 111.038 47.7044C110.532 47.7044 110.045 47.5081 109.68 47.1568C109.315 46.8055 109.1 46.3265 109.081 45.8203L109.092 32.0577ZM141.644 30.0325C141.385 30.031 141.127 30.081 140.887 30.1797C140.647 30.2783 140.429 30.4237 140.245 30.6073C140.062 30.7908 139.916 31.009 139.818 31.2492C139.719 31.4894 139.669 31.7467 139.67 32.0063V33.1687C138.408 31.3874 136.628 29.9598 133.854 29.9598C129.856 29.9598 125.923 33.1295 125.923 38.8249V38.8905C125.913 44.5574 129.798 47.7556 133.844 47.7556C136.675 47.7556 138.452 46.3487 139.659 44.7713C139.463 47.8497 137.58 49.4748 134.275 49.4748C132.434 49.4933 130.621 49.0257 129.019 48.1193C128.799 48.011 128.556 47.9562 128.31 47.9595C127.878 47.9594 127.464 48.1281 127.155 48.4297C126.846 48.7312 126.667 49.1416 126.657 49.5732C126.649 49.9148 126.751 50.2499 126.947 50.5297C127.143 50.8095 127.423 51.0195 127.747 51.1292C129.799 52.1422 132.059 52.6637 134.347 52.6524C137.422 52.6524 139.817 51.925 141.373 50.3562C142.794 48.9315 143.554 46.7908 143.554 43.9156V31.9985C143.559 31.7432 143.513 31.4894 143.419 31.2518C143.326 31.0142 143.186 30.7975 143.008 30.614C142.831 30.4306 142.619 30.2841 142.384 30.1829C142.15 30.0818 141.897 30.028 141.642 30.0247L141.644 30.0325ZM134.782 44.3713C132.096 44.3713 129.898 42.2677 129.898 38.9019V38.8363C129.898 35.5361 132.129 33.384 134.782 33.384C137.435 33.384 139.765 35.5682 139.765 38.8363V38.9019C139.765 42.1693 137.439 44.3713 134.782 44.3713Z" fill="#68BD45"/>
<path id="Vector_3" d="M105.159 27.3321C106.249 27.3321 107.133 26.4483 107.133 25.3582C107.133 24.2681 106.249 23.3844 105.159 23.3844C104.069 23.3844 103.185 24.2681 103.185 25.3582C103.185 26.4483 104.069 27.3321 105.159 27.3321Z" fill="#68BD45"/>
</g>
</g>
</svg>
