<svg width="740" height="116" viewBox="0 0 740 116" fill="none" xmlns="http://www.w3.org/2000/svg">
<path fill-rule="evenodd" clip-rule="evenodd" d="M97.83 104.838L93.627 112.279H154.946L150.743 104.838H97.83ZM154.946 3.72081H93.627L97.83 11.1624H150.741L154.946 3.72081ZM102.033 18.604L79.7804 58L102.033 97.396H146.538L168.791 58L146.538 18.604H102.033ZM91.5256 116L58.7634 58L91.5233 0H157.045L189.807 58L157.048 116H91.5256Z" fill="black"/>
<path fill-rule="evenodd" clip-rule="evenodd" d="M187.706 24.5152L198.213 5.91113L227.636 58.0001L198.213 110.089L187.706 91.485L206.621 58.0001L187.706 24.5152Z" fill="black"/>
<path fill-rule="evenodd" clip-rule="evenodd" d="M50.3576 110.089L20.9348 58.0001L50.3576 5.91113L60.8649 24.5152L41.9517 58.0001L60.8649 91.485L50.3576 110.089Z" fill="black"/>
<path d="M366.768 23.4762L329.268 66.9109L291.769 23.4762H273.57V90.4336H286.68V37.8129L329.268 87.1517L371.857 37.8129V90.4336H384.967V23.4762H366.768ZM407.704 63.6314H440.482C444.699 63.6314 448.519 64.8966 451.942 67.4268C455.273 69.8946 457.626 73.0964 459.002 77.0324H407.706L407.704 63.6314ZM407.704 36.8293H459C457.625 40.7965 455.272 44.0139 451.94 46.4817C448.518 48.9807 444.697 50.2302 440.48 50.2302H407.703L407.704 36.8293ZM394.594 90.4336H473.212V83.733C473.212 78.3602 472.02 73.2997 469.636 68.5516C467.344 63.9284 464.166 60.055 460.101 56.9312C464.166 53.8074 467.344 49.9496 469.636 45.3577C472.02 40.6096 473.212 35.5334 473.212 30.1293V23.4758H394.594V90.4336ZM548.347 63.6314C548.347 67.3175 547.079 70.4725 544.542 73.0964C541.975 75.7204 538.888 77.0324 535.282 77.0324H495.949V36.8291H535.282C538.888 36.8291 541.975 38.1411 544.542 40.7651C547.079 43.389 548.347 46.544 548.347 50.2301V63.6314ZM482.839 23.4762V90.4336H535.283C542.495 90.4336 548.668 87.8096 553.803 82.5617C558.906 77.345 561.458 71.035 561.458 63.6317V50.2309C561.458 42.8588 558.906 36.5488 553.803 31.3009C548.668 26.0842 542.495 23.4759 535.283 23.4759L482.839 23.4762ZM571.084 90.4336H646.448V77.0328H571.084V90.4336ZM571.084 36.8293H646.448V23.4752H571.084V36.8293ZM571.084 63.6314H646.448V50.2306H571.084V63.6314ZM718.971 23.4762L699.901 77.0325H689.082L670.012 23.4762H656.076L679.913 90.4336H709.069L732.906 23.4762H718.971Z" fill="black"/>
</svg>
