<svg width="740" height="364" viewBox="0 0 740 364" fill="none" xmlns="http://www.w3.org/2000/svg">
<path fill-rule="evenodd" clip-rule="evenodd" d="M168.622 215.834L165.582 221.216H209.936L206.896 215.834H168.622ZM209.936 142.691H165.582L168.622 148.074H206.894L209.936 142.691ZM171.662 153.457L155.566 181.954L171.662 210.451H203.854L219.951 181.954L203.854 153.457H171.662ZM164.061 223.908L140.363 181.954L164.06 140H211.455L235.153 181.954L211.456 223.908H164.061Z" fill="white"/>
<path fill-rule="evenodd" clip-rule="evenodd" d="M233.633 157.733L241.233 144.276L262.516 181.954L241.233 219.632L233.633 206.175L247.315 181.954L233.633 157.733Z" fill="white"/>
<path fill-rule="evenodd" clip-rule="evenodd" d="M134.283 219.632L113 181.954L134.283 144.276L141.883 157.733L128.202 181.954L141.883 206.175L134.283 219.632Z" fill="white"/>
<path d="M363.156 156.981L336.031 188.4L308.906 156.981H295.742V205.415H305.225V167.352L336.031 203.041L366.837 167.352V205.415H376.321V156.981H363.156ZM392.767 186.027H416.477C419.527 186.027 422.291 186.942 424.766 188.773C427.176 190.558 428.878 192.874 429.873 195.721H392.768L392.767 186.027ZM392.767 166.64H429.872C428.877 169.51 427.175 171.837 424.765 173.622C422.29 175.43 419.526 176.334 416.476 176.334H392.766L392.767 166.64ZM383.284 205.415H440.152V200.568C440.152 196.681 439.29 193.021 437.566 189.586C435.908 186.242 433.609 183.44 430.668 181.181C433.609 178.921 435.908 176.131 437.566 172.809C439.29 169.375 440.152 165.703 440.152 161.794V156.981H383.284V205.415ZM494.501 186.027C494.501 188.694 493.583 190.976 491.748 192.874C489.891 194.772 487.659 195.721 485.05 195.721H456.599V166.64H485.05C487.659 166.64 489.891 167.589 491.748 169.487C493.583 171.385 494.501 173.667 494.501 176.334V186.027ZM447.116 156.981V205.415H485.05C490.268 205.415 494.733 203.517 498.447 199.72C502.139 195.947 503.984 191.383 503.984 186.028V176.334C503.984 171.002 502.139 166.437 498.447 162.641C494.733 158.868 490.268 156.981 485.05 156.981L447.116 156.981ZM510.948 205.415H565.461V195.721H510.948V205.415ZM510.948 166.64H565.461V156.981H510.948V166.64ZM510.948 186.027H565.461V176.334H510.948V186.027ZM617.92 156.981L604.126 195.721H596.3L582.506 156.981H572.426L589.668 205.415H610.758L628 156.981H617.92Z" fill="white"/>
</svg>
