<svg width="207" height="116" viewBox="0 0 207 116" fill="none" xmlns="http://www.w3.org/2000/svg">
<g clip-path="url(#clip0_69_2)">
<path fill-rule="evenodd" clip-rule="evenodd" d="M76.83 104.838L72.627 112.279H133.946L129.743 104.838H76.83ZM133.946 3.72081H72.627L76.83 11.1624H129.741L133.946 3.72081ZM81.0329 18.604L58.7804 58L81.0329 97.396H125.538L147.791 58L125.538 18.604H81.0329ZM70.5256 116L37.7634 58L70.5233 0H136.045L168.807 58L136.048 116H70.5256Z" fill="#0066FF"/>
<path fill-rule="evenodd" clip-rule="evenodd" d="M166.706 24.5152L177.213 5.91113L206.636 58.0001L177.213 110.089L166.706 91.485L185.622 58.0001L166.706 24.5152Z" fill="#0066FF"/>
<path fill-rule="evenodd" clip-rule="evenodd" d="M29.3576 110.089L-0.0651855 58.0001L29.3576 5.91113L39.8649 24.5152L20.9517 58.0001L39.8649 91.485L29.3576 110.089Z" fill="#0066FF"/>
</g>
<defs>
<clipPath id="clip0_69_2">
<rect width="207" height="116" fill="white"/>
</clipPath>
</defs>
</svg>
