<svg width="36" height="29" viewBox="0 0 36 29" fill="none" xmlns="http://www.w3.org/2000/svg">
<g id="Group 237720">
<path id="Vector 25" d="M11.6152 10.2501L11.6536 10.3679C11.6557 10.3746 11.6569 10.3817 11.6569 10.3888C11.6569 10.426 11.6264 10.4562 11.5891 10.4562C11.5835 10.4562 11.5778 10.4569 11.5723 10.4583L11.428 10.4953C11.3267 10.5212 11.2225 10.5344 11.1179 10.5344H10.8177H10.1312H9.29204H8.45291H8.23997C8.12841 10.5344 8.01762 10.516 7.91205 10.4799L7.87155 10.4661C7.8523 10.4595 7.83355 10.4516 7.81544 10.4423L7.79301 10.4308C7.72619 10.3966 7.67227 10.3416 7.63934 10.2741C7.62242 10.2395 7.6114 10.2022 7.60672 10.1639L7.5375 9.59656L7.46121 8.89321C7.46121 8.42564 7.5112 7.95942 7.61031 7.50248L7.61378 7.4865C7.76611 6.91428 7.96327 6.35495 8.20342 5.81369L8.22406 5.76718C8.47758 5.29967 8.78131 4.86118 9.12985 4.45949L9.21576 4.36047C9.52051 4.04827 9.8471 3.75816 10.1931 3.49234L10.2837 3.42267L11.1992 2.87561C12.004 2.5149 12.8753 2.32646 13.7572 2.32239L28.5941 2.25392C29.0838 2.25166 29.5553 2.0679 29.9174 1.73816C30 1.66299 30.0887 1.59494 30.1827 1.53474L30.2522 1.49029C30.5168 1.32082 30.8069 1.19471 31.1113 1.11673L31.262 1.07815L31.5314 1.04365C31.7577 1.01467 31.9868 1.01467 32.2132 1.04365C32.3923 1.06659 32.5687 1.10756 32.7396 1.16592L32.9614 1.24166C33.2505 1.34039 33.5215 1.4857 33.7638 1.67184C33.9263 1.79667 34.0746 1.93894 34.2061 2.09609L34.2252 2.11901C34.3851 2.3101 34.5212 2.51991 34.6305 2.74382L34.6404 2.76423C34.7274 2.94232 34.7979 3.12795 34.8511 3.31883L34.9237 3.57897C34.9744 3.83886 34.9999 4.10305 34.9999 4.36785V4.59493C34.9999 4.6467 34.9918 4.69816 34.9758 4.74739L34.7711 5.37643L34.7597 5.39979C34.6151 5.69601 34.44 5.9763 34.2371 6.23609L34.0429 6.43504C33.9183 6.56269 33.7833 6.67978 33.6394 6.78512C33.4284 6.93953 33.1994 7.06772 32.9574 7.16686L32.9403 7.17389L32.6961 7.25726C32.554 7.30581 32.4082 7.3429 32.2601 7.36818L32.1618 7.38496C32.0707 7.40052 31.9784 7.40835 31.8859 7.40835C31.7754 7.40835 31.6652 7.39717 31.5569 7.37498L31.3666 7.336C31.3478 7.33214 31.3286 7.33019 31.3094 7.33019C31.278 7.33019 31.2469 7.32502 31.2172 7.31489L31.1026 7.27575C31.0563 7.25997 31.0113 7.24087 30.9679 7.2186L30.728 7.09574L30.3466 6.86129C29.6039 6.30332 28.7001 6.00164 27.7711 6.00164H22.8707L16.1577 6.07979H15.5474H14.8608L13.4114 6.15794L13.079 6.21469C12.9956 6.22893 12.9135 6.24983 12.8334 6.27718C12.7611 6.30185 12.6907 6.33171 12.6228 6.36652L12.5723 6.39239L12.3434 6.54869L12.2981 6.58353C12.1251 6.71643 11.9618 6.86149 11.8094 7.01759L11.6833 7.18986C11.615 7.28323 11.5551 7.3825 11.5043 7.4865L11.3517 7.7991L11.3471 7.81342C11.2994 7.95996 11.263 8.10993 11.2383 8.26203L11.2368 8.27104C11.2117 8.42507 11.1992 8.58086 11.1992 8.7369C11.1992 8.89295 11.2117 9.04874 11.2368 9.20277L11.2754 9.44026L11.3105 9.5839C11.3379 9.69621 11.3773 9.80526 11.428 9.90916L11.5195 10.0498C11.56 10.1121 11.5922 10.1794 11.6152 10.2501Z" fill="white" stroke="white" stroke-width="0.2"/>
<path id="Vector 26" d="M24.3847 8.05119L24.3464 7.93338C24.3442 7.92664 24.343 7.91959 24.343 7.91251C24.343 7.87525 24.3735 7.84505 24.4108 7.84505C24.4164 7.84505 24.4221 7.84434 24.4276 7.84293L24.5719 7.80598C24.6732 7.78003 24.7774 7.7669 24.882 7.7669H25.1822H25.8687H26.7079H27.547H27.7599C27.8715 7.7669 27.9823 7.7853 28.0879 7.82135L28.1284 7.83518C28.1476 7.84175 28.1664 7.84971 28.1845 7.85898L28.2069 7.87047C28.2737 7.9047 28.3276 7.95968 28.3606 8.02715C28.3775 8.06181 28.3885 8.09905 28.3932 8.13734L28.4624 8.70471L28.5387 9.40806C28.5387 9.87563 28.4887 10.3419 28.3896 10.7988L28.3861 10.8148C28.2338 11.387 28.0366 11.9463 27.7965 12.4876L27.7759 12.5341C27.5223 13.0016 27.2186 13.4401 26.8701 13.8418L26.7842 13.9408C26.4794 14.253 26.1528 14.5431 25.8068 14.8089L25.7162 14.8786L24.8008 15.4257C23.9959 15.7864 23.1246 15.9748 22.2427 15.9789L7.40582 16.0473C6.91609 16.0496 6.4446 16.2334 6.0825 16.5631C5.99996 16.6383 5.9112 16.7063 5.81717 16.7665L5.74776 16.811C5.48307 16.9804 5.19302 17.1066 4.88856 17.1845L4.73791 17.2231L4.46852 17.2576C4.24219 17.2866 4.01308 17.2866 3.78674 17.2576C3.60761 17.2347 3.43125 17.1937 3.26034 17.1354L3.03853 17.0596C2.74941 16.9609 2.47837 16.8156 2.23611 16.6294C2.07363 16.5046 1.92533 16.3623 1.79385 16.2052L1.77467 16.1823C1.61478 15.9912 1.47871 15.7814 1.36942 15.5574L1.35946 15.537C1.27254 15.359 1.20203 15.1733 1.1488 14.9824L1.07625 14.7223C1.02551 14.4624 0.999964 14.1982 0.999964 13.9334V13.7063C0.999964 13.6546 1.00812 13.6031 1.02414 13.5539L1.22882 12.9248L1.24022 12.9015C1.38479 12.6053 1.55994 12.325 1.76281 12.0652L1.95701 11.8662C2.08161 11.7386 2.21658 11.6215 2.36053 11.5161C2.57154 11.3617 2.80054 11.2336 3.04249 11.1344L3.05965 11.1274L3.30379 11.044C3.44594 10.9955 3.59174 10.9584 3.73981 10.9331L3.83811 10.9163C3.92925 10.9007 4.02154 10.8929 4.114 10.8929C4.22452 10.8929 4.33475 10.9041 4.44302 10.9263L4.63329 10.9653C4.65213 10.9691 4.67131 10.9711 4.69055 10.9711C4.7219 10.9711 4.75305 10.9762 4.78273 10.9864L4.89735 11.0255C4.94356 11.0413 4.98858 11.0604 5.03204 11.0827L5.2719 11.2055L5.65332 11.44C6.39603 11.998 7.29985 12.2996 8.2288 12.2996L13.1292 12.2996L19.8423 12.2215H20.4525H21.1391L22.5885 12.1433L22.9209 12.0866C23.0043 12.0723 23.0864 12.0514 23.1665 12.0241C23.2388 11.9994 23.3092 11.9696 23.3771 11.9348L23.4276 11.9089L23.6565 11.7526L23.7018 11.7177C23.8748 11.5848 24.0381 11.4398 24.1905 11.2837L24.3166 11.1114C24.3849 11.018 24.4449 10.9188 24.4956 10.8148L24.6482 10.5022L24.6528 10.4878C24.7005 10.3413 24.7369 10.1913 24.7616 10.0392L24.7631 10.0302C24.7882 9.8762 24.8008 9.72041 24.8008 9.56437C24.8008 9.40832 24.7882 9.25253 24.7631 9.0985L24.7245 8.86101L24.6894 8.71737C24.662 8.60505 24.6226 8.49601 24.5719 8.39211L24.4804 8.25149C24.4399 8.1892 24.4077 8.12186 24.3847 8.05119Z" fill="white" stroke="white" stroke-width="0.2"/>
<ellipse id="Ellipse 92" cx="14.8056" cy="9.5643" rx="0.9917" ry="1.01596" fill="white"/>
<ellipse id="Ellipse 93" cx="20.9102" cy="9.5643" rx="0.9917" ry="1.01596" fill="white"/>
<path id="Vector 29" d="M9.34718 17H8.40472C7.95857 17 7.59689 17.3617 7.59689 17.8078V18.3793V25.8276C7.59689 27.5097 8.94912 28.8794 10.6311 28.9009L18.3679 29L23.3805 28.9366C26.6471 28.8953 29.2736 26.2354 29.2736 22.9685V21.9816C29.2736 19.2303 27.0432 17 24.292 17H22.5417H17.4254H14.5981H14.0694C13.8409 17 13.6556 17.1853 13.6556 17.4138V17.8276V18.6552V20.1724V20.3235C13.6556 20.621 13.8967 20.8621 14.1941 20.8621H15.002H18.0986H19.9836H22.0031H23.4841C24.364 20.8621 25.1406 21.4371 25.3973 22.2786L25.4504 22.4528C25.5725 22.8532 25.5641 23.282 25.4263 23.6772C25.1502 24.4693 24.4032 25 23.5643 25H23.2149H20.2528H16.6176H13.2517H12.0399C11.5938 25 11.2321 24.6383 11.2321 24.1922V24.1724V22.7931V20.1724V18.1034V17.9425C11.2321 17.422 10.8102 17 10.2896 17H9.34718Z" fill="white"/>
</g>
</svg>
