<svg width="150" height="76" viewBox="0 0 150 76" fill="none" xmlns="http://www.w3.org/2000/svg">
<g id="expressjs-ar21">
<path id="Vector" d="M49.9998 52.7835V23.9773H51.5623V28.5085C51.7468 28.3076 51.9172 28.0942 52.0723 27.8698C53.3773 25.1623 56.1298 23.4535 59.1348 23.4873C62.6973 23.381 65.5923 24.6998 67.2936 27.8698C68.3762 29.8391 68.9719 32.0389 69.031 34.2854C69.0902 36.5319 68.611 38.7599 67.6336 40.7835C66.0486 44.336 62.1336 46.1023 57.9423 45.4535C56.638 45.3426 55.3822 44.9068 54.2895 44.1858C53.1969 43.4648 52.3023 42.4817 51.6873 41.326V52.7823L49.9998 52.7835ZM51.5623 34.1673L51.9123 37.5498C52.5298 41.3998 54.8061 43.6748 58.3798 44.1023C60.0581 44.3782 61.7801 44.0636 63.2523 43.212C64.7246 42.3604 65.8559 41.0246 66.4536 39.4323C67.8436 36.1198 67.7411 32.3698 66.1786 29.1348C65.5408 27.7074 64.4557 26.5264 63.0872 25.7702C61.7188 25.0141 60.1415 24.7239 58.5936 24.9435C57.1406 25.0492 55.7566 25.6048 54.6339 26.5331C53.5112 27.4614 52.7054 28.7163 52.3286 30.1235C51.9958 31.4552 51.74 32.8049 51.5623 34.166V34.1673ZM100.935 38.0823C100.698 40.1105 99.7323 41.9836 98.2178 43.3533C96.7033 44.723 94.7428 45.496 92.7011 45.5285C86.1486 45.8585 83.0736 41.5073 82.5848 36.486C82.2449 33.7592 82.6876 30.992 83.8611 28.5073C84.6778 26.8028 86.016 25.4025 87.6818 24.5094C89.3475 23.6163 91.2544 23.2767 93.1261 23.5398C94.9054 23.691 96.5921 24.398 97.9475 25.5607C99.3029 26.7234 100.258 28.2829 100.679 30.0185C101.011 31.5996 101.256 33.1979 101.412 34.806H84.2036C83.8848 39.3585 86.3311 43.0185 89.7986 43.901C94.1173 44.9635 97.8086 43.0923 99.1486 38.986C99.4461 37.9323 99.9886 37.7835 100.946 38.0823H100.935ZM84.1911 33.3485H99.5836C99.4873 28.4985 96.4673 24.9735 92.3711 24.9335C87.7461 24.8585 84.3923 28.2423 84.1911 33.3485ZM104.116 38.1885H105.625C105.68 39.3001 106.041 40.3748 106.668 41.2944C107.295 42.214 108.163 42.943 109.177 43.401C110.451 43.9742 111.837 44.2527 113.233 44.2159C114.63 44.1791 115.999 43.828 117.241 43.1885C117.918 42.8838 118.485 42.3786 118.865 41.7413C119.246 41.1039 119.421 40.3652 119.369 39.6248C119.408 38.9107 119.213 38.2035 118.813 37.6102C118.414 37.0169 117.832 36.57 117.156 36.3373C115.496 35.7198 113.731 35.3798 112.04 34.8373C110.28 34.3362 108.559 33.707 106.891 32.9548C104.166 31.6248 103.997 26.4448 107.082 24.8048C108.662 23.9134 110.44 23.4318 112.253 23.4038C114.067 23.3759 115.858 23.8025 117.465 24.6448C119.457 25.7448 120.559 27.966 120.231 30.2198H118.937C118.937 30.1573 118.82 30.1023 118.82 30.0385C118.66 25.9135 115.192 24.6235 111.47 24.986C110.345 25.111 109.279 25.451 108.279 25.9535C107.677 26.228 107.176 26.6826 106.845 27.2544C106.514 27.8261 106.368 28.4867 106.429 29.1448C106.43 29.8033 106.635 30.4454 107.016 30.9826C107.397 31.5198 107.935 31.9258 108.556 32.1448C110.181 32.741 111.906 33.1235 113.587 33.591L117.65 34.6535C118.573 34.9566 119.383 35.5328 119.972 36.306C120.56 37.0791 120.901 38.0128 120.947 38.9835C121.272 41.1648 120.16 43.3085 118.192 44.3023C114.64 46.3123 108.789 45.781 106.182 43.2398C104.849 41.8985 104.105 40.0773 104.12 38.1873L104.116 38.1885ZM140.091 30.221H138.676C138.676 30.0298 138.601 29.846 138.58 29.6998C138.557 28.6391 138.171 27.6185 137.485 26.8089C136.799 25.9994 135.856 25.4503 134.814 25.2535C132.847 24.6895 130.749 24.7906 128.846 25.541C128.094 25.7564 127.431 26.2096 126.957 26.8328C126.484 27.456 126.225 28.2158 126.219 28.9985C126.192 29.7671 126.431 30.5214 126.896 31.1338C127.361 31.7463 128.023 32.1794 128.771 32.3598L135.239 34.0198C135.938 34.1875 136.627 34.3971 137.301 34.6473C139.364 35.3973 140.764 37.3123 140.826 39.501C140.857 40.5724 140.563 41.628 139.983 42.5293C139.403 43.4306 138.564 44.1354 137.576 44.551C136.075 45.2329 134.448 45.5937 132.799 45.6102C131.151 45.6268 129.517 45.2988 128.002 44.6473C126.757 44.1102 125.706 43.2044 124.991 42.0519C124.275 40.8994 123.931 39.5555 124.002 38.201H125.385C125.905 40.7073 127.626 42.7948 129.987 43.7823C132.349 44.7698 135.045 44.5273 137.192 43.1373C137.837 42.8022 138.371 42.2895 138.733 41.6599C139.095 41.0303 139.269 40.3102 139.235 39.5848C139.267 38.8702 139.065 38.1647 138.66 37.5753C138.255 36.9859 137.668 36.5446 136.99 36.3185C135.33 35.701 133.565 35.3723 131.874 34.8185C130.104 34.3252 128.373 33.7031 126.694 32.9573C124.034 31.6485 123.821 26.511 126.854 24.8723C128.453 23.9435 130.265 23.4445 132.114 23.424C133.964 23.4034 135.787 23.8618 137.406 24.7548C138.332 25.3076 139.078 26.1178 139.552 27.0868C140.026 28.0558 140.208 29.1417 140.076 30.2123L140.091 30.221ZM47.4286 45.0085C46.8716 45.2191 46.2568 45.2186 45.7002 45.0069C45.1436 44.7953 44.6837 44.3872 44.4073 43.8598L38.9073 36.2535L38.1098 35.191L31.7273 43.871C31.4672 44.3758 31.0322 44.7686 30.5036 44.9761C29.975 45.1836 29.3889 45.1916 28.8548 44.9985L37.0773 33.9673L29.4273 23.9998C30.5623 23.5898 31.8273 24.0348 32.4586 25.0623L38.1586 32.7623L43.8923 25.0923C44.1544 24.5961 44.5897 24.2136 45.1154 24.0175C45.6411 23.8213 46.2206 23.8253 46.7436 24.0285L43.7748 27.9673L39.7536 33.201C39.642 33.3007 39.5527 33.4228 39.4915 33.5594C39.4304 33.6959 39.3988 33.8439 39.3988 33.9935C39.3988 34.1432 39.4304 34.2911 39.4915 34.4277C39.5527 34.5642 39.642 34.6864 39.7536 34.786L47.4123 45.0085H47.4286ZM82.3411 23.8935V25.3935C81.2652 25.323 80.1864 25.4788 79.1745 25.8509C78.1625 26.223 77.2398 26.8032 76.4659 27.554C75.6921 28.3048 75.0842 29.2095 74.6816 30.2097C74.279 31.2099 74.0906 32.2835 74.1286 33.361C74.1286 36.8644 74.1286 40.3677 74.1286 43.871V45.0623H72.6073V23.9873H74.1073V28.306C75.9473 25.156 78.7873 23.9873 82.3511 23.9023L82.3411 23.8935ZM9.16607 33.8298L9.83607 30.521C11.6761 23.9785 19.1761 21.256 24.3361 25.3085C27.3573 27.681 28.1111 31.0423 27.9636 34.8298H10.9423C10.6673 41.5948 15.5486 45.6798 21.7923 43.5948C23.8498 42.8448 25.3986 41.1348 25.9086 39.0098C26.2386 37.9473 26.7836 37.7648 27.7811 38.0723C27.6147 39.3674 27.1569 40.608 26.4419 41.7007C25.727 42.7934 24.7737 43.7098 23.6536 44.381C21.803 45.3931 19.6798 45.7941 17.5876 45.5267C15.4954 45.2593 13.5414 44.3372 12.0048 42.8923C10.4848 41.1835 9.56732 39.0235 9.38857 36.7423C9.38857 36.3673 9.26357 36.0173 9.17607 35.6798C9.16774 35.0489 9.16357 34.4323 9.16357 33.8298H9.16607ZM10.9636 33.3723H26.3561C26.2598 28.4685 23.1648 24.9898 19.0373 24.9573C14.4423 24.8948 11.1548 28.2973 10.9523 33.351L10.9636 33.3723Z" fill="black"/>
</g>
</svg>
