<svg width="149" height="76" viewBox="0 0 149 76" fill="none" xmlns="http://www.w3.org/2000/svg">
<g id="flutterio-ar21">
<g id="Group">
<g id="Clip path group">
<mask id="mask0_629_8205" style="mask-type:luminance" maskUnits="userSpaceOnUse" x="5" y="11" width="41" height="52">
<g id="C">
<path id="Vector" d="M45.5476 35.057L32.0708 48.6291L45.5476 62.2012H30.1476L16.666 48.6291L30.1476 35.057H45.5476ZM30.1476 11.7996L5.11719 36.9979L12.8196 44.752L45.5476 11.7996H30.1476Z" fill="white"/>
</g>
</mask>
<g mask="url(#mask0_629_8205)">
<g id="Group_2">
<path id="Vector_2" d="M24.3685 56.3832L45.5477 35.057H30.1477L16.6709 48.6291L24.3685 56.3832Z" fill="#39CEFD"/>
</g>
</g>
</g>
<g id="Clip path group_2">
<mask id="mask1_629_8205" style="mask-type:luminance" maskUnits="userSpaceOnUse" x="5" y="11" width="41" height="52">
<g id="E">
<path id="Vector_3" d="M45.5476 35.057L32.0708 48.6291L45.5476 62.2012H30.1476L16.666 48.6291L30.1476 35.057H45.5476ZM30.1476 11.7996L5.11719 36.9979L12.8196 44.752L45.5476 11.7996H30.1476Z" fill="white"/>
</g>
</mask>
<g mask="url(#mask1_629_8205)">
<path id="Vector_4" d="M5.11719 36.9979L30.1476 11.7996H45.5476L12.8196 44.752L5.11719 36.9979Z" fill="#39CEFD"/>
</g>
</g>
<g id="Clip path group_3">
<mask id="mask2_629_8205" style="mask-type:luminance" maskUnits="userSpaceOnUse" x="5" y="11" width="41" height="52">
<g id="G">
<path id="Vector_5" d="M45.5476 35.057L32.0708 48.6291L45.5476 62.2012H30.1476L16.666 48.6291L30.1476 35.057H45.5476ZM30.1476 11.7996L5.11719 36.9979L12.8196 44.752L45.5476 11.7996H30.1476Z" fill="white"/>
</g>
</mask>
<g mask="url(#mask2_629_8205)">
<path id="Vector_6" d="M30.1474 62.1963H45.5474L32.0706 48.6291L24.3682 56.3832L30.1474 62.1963Z" fill="#03569B"/>
</g>
</g>
<g id="Clip path group_4">
<mask id="mask3_629_8205" style="mask-type:luminance" maskUnits="userSpaceOnUse" x="5" y="11" width="41" height="52">
<g id="I">
<path id="Vector_7" d="M45.5476 35.057L32.0708 48.6291L45.5476 62.2012H30.1476L16.666 48.6291L30.1476 35.057H45.5476ZM30.1476 11.7996L5.11719 36.9979L12.8196 44.752L45.5476 11.7996H30.1476Z" fill="white"/>
</g>
</mask>
<g mask="url(#mask3_629_8205)">
<path id="Vector_8" d="M32.0706 48.6291L24.3682 56.3832L35.7916 52.3994L32.0706 48.6291Z" fill="url(#paint0_linear_629_8205)"/>
</g>
</g>
<g id="Clip path group_5">
<mask id="mask4_629_8205" style="mask-type:luminance" maskUnits="userSpaceOnUse" x="5" y="11" width="41" height="52">
<g id="L">
<path id="Vector_9" d="M45.5476 35.057L32.0708 48.6291L45.5476 62.2012H30.1476L16.666 48.6291L30.1476 35.057H45.5476ZM30.1476 11.7996L5.11719 36.9979L12.8196 44.752L45.5476 11.7996H30.1476Z" fill="white"/>
</g>
</mask>
<g mask="url(#mask4_629_8205)">
<g id="Group_3">
<path id="Vector_10" d="M16.6699 48.6264L24.3725 40.8721L32.0756 48.6264L24.3725 56.3807L16.6699 48.6264Z" fill="#16B9FD"/>
</g>
</g>
</g>
<path id="Vector_11" d="M45.5476 35.057L32.0708 48.6291L45.5476 62.2012H30.1476L16.666 48.6291L30.1476 35.057H45.5476ZM30.1476 11.7996L5.11719 36.9979L12.8196 44.752L45.5476 11.7996H30.1476Z" fill="url(#paint1_radial_629_8205)"/>
</g>
<g id="Group_4">
<path id="Vector_12" d="M50.4365 25.3098H63.8962V27.9598H53.1682V35.9773H62.8532V38.5948H53.1682V48.7386H50.4365V25.3098ZM67.1531 25.3098H69.9158V48.7398H67.1531V25.3098ZM80.023 49.2636C78.0297 49.2636 76.4983 48.6744 75.4288 47.4961C74.3957 46.3102 73.8792 44.6631 73.8792 42.5548V32.0511H76.6419V42.1298C76.6419 43.7131 76.9995 44.8798 77.7147 45.6298C78.4299 46.3798 79.3943 46.7548 80.6078 46.7548C81.5399 46.7548 82.3676 46.504 83.0911 46.0023C83.8361 45.5006 84.399 44.8465 84.7798 44.0398C85.1912 43.2315 85.3969 42.3806 85.3969 41.4873V32.0623H88.1584V48.7498H85.526V46.3173H85.3957C84.9404 47.1465 84.2144 47.8444 83.2178 48.4111C82.2211 48.9777 81.1591 49.2611 80.0317 49.2611L80.023 49.2636Z" fill="#808080"/>
<path id="Vector_13" d="M98.7921 49.0023C98.1199 49.0023 97.4916 48.8931 96.9072 48.6748C96.3443 48.4565 95.8675 48.1619 95.4768 47.7911C95.043 47.3769 94.7181 46.8969 94.5021 46.3511C94.2852 45.8061 94.1768 45.1406 94.1768 44.3548V34.5711H91.2837V32.0511H94.1768V27.3386H96.9395V32.0511H100.97V34.5711H96.9395V43.6686C96.9395 44.5852 97.1133 45.2615 97.461 45.6973C97.8724 46.1773 98.4684 46.4173 99.249 46.4173C99.8781 46.4173 100.485 46.2319 101.069 45.8611V48.5773C100.744 48.7298 100.408 48.839 100.061 48.9048C99.7357 48.9715 99.3136 49.0048 98.7945 49.0048L98.7921 49.0023Z" fill="#808080"/>
<path id="Vector_14" d="M110.508 49.0023C109.836 49.0023 109.208 48.8931 108.624 48.6748C108.061 48.4565 107.584 48.1619 107.193 47.7911C106.759 47.3769 106.434 46.8969 106.218 46.3511C106.002 45.8061 105.893 45.1406 105.893 44.3548V34.5711H103V32.0511H105.893V27.3386H108.656V32.0511H112.686V34.5711H108.656V43.6686C108.656 44.5852 108.83 45.2615 109.177 45.6973C109.589 46.1773 110.185 46.4173 110.965 46.4173C111.594 46.4173 112.201 46.2319 112.786 45.8611V48.5773C112.46 48.7298 112.124 48.839 111.777 48.9048C111.452 48.9715 111.03 49.0048 110.511 49.0048L110.508 49.0023Z" fill="#808080"/>
<path id="Vector_15" d="M122.677 49.2636C121.104 49.2636 119.684 48.8819 118.418 48.1186C117.161 47.3553 116.175 46.3082 115.46 44.9773C114.766 43.6248 114.419 42.1082 114.419 40.4273C114.419 38.8132 114.744 37.3298 115.394 35.9773C116.066 34.6248 117.009 33.5448 118.223 32.7373C119.436 31.929 120.845 31.5248 122.448 31.5248C124.073 31.5248 125.481 31.8998 126.673 32.6498C127.865 33.3698 128.776 34.3732 129.405 35.6598C130.055 36.9473 130.38 38.4198 130.38 40.0773C130.38 40.4048 130.347 40.6882 130.28 40.9273H117.181C117.247 42.1923 117.551 43.2615 118.091 44.1348C118.632 45.0073 119.315 45.6615 120.14 46.0973C120.984 46.534 121.862 46.7523 122.772 46.7523C124.896 46.7523 126.532 45.749 127.68 43.7423L130.021 44.8873C129.306 46.2398 128.331 47.309 127.096 48.0948C125.882 48.8798 124.409 49.2723 122.675 49.2723L122.677 49.2636ZM127.454 38.6286C127.411 37.9303 127.217 37.2323 126.871 36.5348C126.523 35.8365 125.971 35.2473 125.213 34.7673C124.468 34.2873 123.537 34.0473 122.419 34.0473C121.12 34.0473 120.015 34.4723 119.104 35.3223C118.216 36.1515 117.631 37.2532 117.349 38.6273H127.458L127.454 38.6286ZM133.581 32.0511H136.213V34.7348H136.344C136.669 33.8182 137.297 33.0657 138.228 32.4773C139.16 31.8665 140.136 31.5611 141.154 31.5611C141.912 31.5611 142.562 31.6703 143.103 31.8886V34.8986C142.409 34.5486 141.629 34.3736 140.763 34.3736C139.96 34.3736 139.223 34.6028 138.552 35.0611C137.88 35.5194 137.342 36.1411 136.938 36.9261C136.549 37.6894 136.355 38.5228 136.355 39.4261V48.7511H133.592V32.0636L133.581 32.0511Z" fill="#808080"/>
</g>
</g>
<defs>
<linearGradient id="paint0_linear_629_8205" x1="26.616" y1="57.8796" x2="32.3909" y2="52.1432" gradientUnits="userSpaceOnUse">
<stop stop-color="#1A237E" stop-opacity="0.4"/>
<stop offset="1" stop-color="#1A237E" stop-opacity="0"/>
</linearGradient>
<radialGradient id="paint1_radial_629_8205" cx="0" cy="0" r="1" gradientUnits="userSpaceOnUse" gradientTransform="translate(6.25301 15.2348) scale(61.2491 61.6602)">
<stop stop-color="white" stop-opacity="0.1"/>
<stop offset="1" stop-color="white" stop-opacity="0"/>
</radialGradient>
</defs>
</svg>
