<svg xmlns="http://www.w3.org/2000/svg" xmlns:xlink="http://www.w3.org/1999/xlink" width="128" zoomAndPan="magnify" viewBox="0 0 96.75 73.499996" height="98" preserveAspectRatio="xMidYMid meet" version="1.0"><defs><clipPath id="d6f90b533b"><path d="M 7.523438 18 L 48.496094 18 L 48.496094 65.425781 L 7.523438 65.425781 Z M 7.523438 18 " clip-rule="nonzero"/></clipPath><clipPath id="391dd9cbce"><path d="M 11 7.320312 L 19 7.320312 L 19 16 L 11 16 Z M 11 7.320312 " clip-rule="nonzero"/></clipPath><clipPath id="8bcd69ff7f"><path d="M 20 7.320312 L 28 7.320312 L 28 16 L 20 16 Z M 20 7.320312 " clip-rule="nonzero"/></clipPath><clipPath id="6d1c6f6512"><path d="M 28 7.320312 L 38 7.320312 L 38 16 L 28 16 Z M 28 7.320312 " clip-rule="nonzero"/></clipPath><clipPath id="ca206080eb"><path d="M 38 7.320312 L 45 7.320312 L 45 16 L 38 16 Z M 38 7.320312 " clip-rule="nonzero"/></clipPath><clipPath id="7c45409b20"><path d="M 46.558594 18 L 88.277344 18 L 88.277344 66.546875 L 46.558594 66.546875 Z M 46.558594 18 " clip-rule="nonzero"/></clipPath><clipPath id="cb06e86d80"><path d="M 56 6.953125 L 63 6.953125 L 63 15 L 56 15 Z M 56 6.953125 " clip-rule="nonzero"/></clipPath><clipPath id="1f290d997d"><path d="M 63 6.953125 L 71 6.953125 L 71 16 L 63 16 Z M 63 6.953125 " clip-rule="nonzero"/></clipPath><clipPath id="d16b405058"><path d="M 71 6.953125 L 78 6.953125 L 78 16 L 71 16 Z M 71 6.953125 " clip-rule="nonzero"/></clipPath></defs><g clip-path="url(#d6f90b533b)"><path fill="#e44d26" d="M 48.484375 18.738281 L 44.753906 60.75 L 27.992188 65.421875 L 11.273438 60.757812 L 7.550781 18.738281 Z M 48.484375 18.738281 " fill-opacity="1" fill-rule="nonzero"/></g><path fill="#f16529" d="M 28.015625 61.851562 L 41.5625 58.074219 L 44.75 22.175781 L 28.015625 22.175781 Z M 28.015625 61.851562 " fill-opacity="1" fill-rule="nonzero"/><path fill="#ebebeb" d="M 20.765625 32.480469 L 28.015625 32.480469 L 28.015625 27.328125 L 15.167969 27.328125 L 15.289062 28.710938 L 16.546875 42.910156 L 28.015625 42.910156 L 28.015625 37.757812 L 21.234375 37.757812 Z M 20.765625 32.480469 " fill-opacity="1" fill-rule="nonzero"/><path fill="#ebebeb" d="M 21.921875 45.488281 L 16.777344 45.488281 L 17.496094 53.578125 L 27.992188 56.511719 L 28.015625 56.503906 L 28.015625 51.140625 L 27.996094 51.148438 L 22.285156 49.597656 Z M 21.921875 45.488281 " fill-opacity="1" fill-rule="nonzero"/><g clip-path="url(#391dd9cbce)"><path fill="#000000" d="M 11.359375 7.320312 L 13.960938 7.320312 L 13.960938 9.90625 L 16.34375 9.90625 L 16.34375 7.320312 L 18.949219 7.320312 L 18.949219 15.15625 L 16.34375 15.15625 L 16.34375 12.53125 L 13.960938 12.53125 L 13.960938 15.15625 L 11.359375 15.15625 Z M 11.359375 7.320312 " fill-opacity="1" fill-rule="nonzero"/></g><g clip-path="url(#8bcd69ff7f)"><path fill="#000000" d="M 22.375 9.917969 L 20.082031 9.917969 L 20.082031 7.320312 L 27.273438 7.320312 L 27.273438 9.917969 L 24.976562 9.917969 L 24.976562 15.15625 L 22.375 15.15625 Z M 22.375 9.917969 " fill-opacity="1" fill-rule="nonzero"/></g><g clip-path="url(#6d1c6f6512)"><path fill="#000000" d="M 28.414062 7.320312 L 31.128906 7.320312 L 32.796875 10.074219 L 34.46875 7.320312 L 37.183594 7.320312 L 37.183594 15.15625 L 34.589844 15.15625 L 34.589844 11.273438 L 32.796875 14.058594 L 32.753906 14.058594 L 30.960938 11.273438 L 30.960938 15.15625 L 28.414062 15.15625 Z M 28.414062 7.320312 " fill-opacity="1" fill-rule="nonzero"/></g><g clip-path="url(#ca206080eb)"><path fill="#000000" d="M 38.480469 7.320312 L 41.085938 7.320312 L 41.085938 12.566406 L 44.746094 12.566406 L 44.746094 15.15625 L 38.480469 15.15625 Z M 38.480469 7.320312 " fill-opacity="1" fill-rule="nonzero"/></g><path fill="#ffffff" d="M 28 42.910156 L 34.308594 42.910156 L 33.714844 49.59375 L 28 51.148438 L 28 56.507812 L 38.503906 53.578125 L 38.582031 52.707031 L 39.785156 39.140625 L 39.910156 37.757812 L 28 37.757812 Z M 28 42.910156 " fill-opacity="1" fill-rule="nonzero"/><path fill="#ffffff" d="M 28 32.46875 L 28 32.480469 L 40.378906 32.480469 L 40.480469 31.320312 L 40.714844 28.710938 L 40.835938 27.328125 L 28 27.328125 Z M 28 32.46875 " fill-opacity="1" fill-rule="nonzero"/><g clip-path="url(#7c45409b20)"><path fill="#264de4" d="M 67.402344 66.542969 L 50.378906 61.757812 L 46.585938 18.664062 L 88.265625 18.664062 L 84.46875 61.75 Z M 67.402344 66.542969 " fill-opacity="1" fill-rule="nonzero"/></g><path fill="#2965f1" d="M 81.21875 59.007812 L 84.464844 22.1875 L 67.425781 22.1875 L 67.425781 62.878906 Z M 81.21875 59.007812 " fill-opacity="1" fill-rule="nonzero"/><path fill="#ebebeb" d="M 55.28125 38.171875 L 55.75 43.453125 L 67.425781 43.453125 L 67.425781 38.171875 Z M 55.28125 38.171875 " fill-opacity="1" fill-rule="nonzero"/><path fill="#ebebeb" d="M 54.34375 27.472656 L 54.816406 32.757812 L 67.425781 32.757812 L 67.425781 27.472656 Z M 54.34375 27.472656 " fill-opacity="1" fill-rule="nonzero"/><path fill="#ebebeb" d="M 67.425781 51.898438 L 67.402344 51.902344 L 61.59375 50.3125 L 61.222656 46.097656 L 55.984375 46.097656 L 56.714844 54.398438 L 67.402344 57.402344 L 67.425781 57.394531 Z M 67.425781 51.898438 " fill-opacity="1" fill-rule="nonzero"/><g clip-path="url(#cb06e86d80)"><path fill="#000000" d="M 56.394531 6.953125 L 62.714844 6.953125 L 62.714844 9.628906 L 59.039062 9.628906 L 59.039062 12.304688 L 62.714844 12.304688 L 62.714844 14.984375 L 56.394531 14.984375 Z M 56.394531 6.953125 " fill-opacity="1" fill-rule="nonzero"/></g><g clip-path="url(#1f290d997d)"><path fill="#000000" d="M 63.980469 6.953125 L 70.300781 6.953125 L 70.300781 9.28125 L 66.621094 9.28125 L 66.621094 9.746094 L 70.300781 9.746094 L 70.300781 15.097656 L 63.980469 15.097656 L 63.980469 12.65625 L 67.65625 12.65625 L 67.65625 12.1875 L 63.980469 12.1875 Z M 63.980469 6.953125 " fill-opacity="1" fill-rule="nonzero"/></g><g clip-path="url(#d16b405058)"><path fill="#000000" d="M 71.5625 6.953125 L 77.882812 6.953125 L 77.882812 9.28125 L 74.207031 9.28125 L 74.207031 9.746094 L 77.882812 9.746094 L 77.882812 15.097656 L 71.5625 15.097656 L 71.5625 12.65625 L 75.238281 12.65625 L 75.238281 12.1875 L 71.5625 12.1875 Z M 71.5625 6.953125 " fill-opacity="1" fill-rule="nonzero"/></g><path fill="#ffffff" d="M 79.539062 38.171875 L 80.480469 27.472656 L 67.410156 27.472656 L 67.410156 32.757812 L 74.761719 32.757812 L 74.285156 38.171875 L 67.410156 38.171875 L 67.410156 43.453125 L 73.835938 43.453125 L 73.226562 50.308594 L 67.410156 51.902344 L 67.410156 57.398438 L 78.105469 54.398438 L 78.183594 53.503906 L 79.410156 39.589844 Z M 79.539062 38.171875 " fill-opacity="1" fill-rule="nonzero"/></svg>