<?xml version="1.0" standalone="no"?>
<!DOCTYPE svg PUBLIC "-//W3C//DTD SVG 20010904//EN"
 "http://www.w3.org/TR/2001/REC-SVG-20010904/DTD/svg10.dtd">
<svg version="1.0" xmlns="http://www.w3.org/2000/svg"
 width="2560.000000pt" height="569.000000pt" viewBox="0 0 2560.000000 569.000000"
 preserveAspectRatio="xMidYMid meet">

<g transform="translate(0.000000,569.000000) scale(0.100000,-0.100000)"
fill="#000000" stroke="none">
<path d="M18592 2893 l3 -2798 583 -3 582 -2 0 2800 0 2800 -585 0 -585 0 2
-2797z"/>
<path d="M20180 5175 l0 -515 615 0 615 0 0 515 0 515 -615 0 -615 0 0 -515z"/>
<path d="M10 4049 l0 -1411 118 124 c65 67 642 674 1282 1348 639 674 1190
1253 1224 1288 l60 62 -1342 0 -1342 0 0 -1411z"/>
<path d="M7102 2778 l3 -2683 588 -3 587 -2 0 820 0 821 307 317 c168 174 311
317 317 317 6 0 382 -511 837 -1135 l826 -1135 707 -3 c388 -1 706 0 706 3 0
3 -511 697 -1135 1541 -625 845 -1137 1539 -1138 1543 -1 4 472 502 1052 1106
580 605 1070 1117 1090 1138 l35 37 -711 0 -711 0 -1083 -1169 c-596 -643
-1087 -1170 -1091 -1170 -5 -1 -8 526 -8 1169 l0 1170 -590 0 -590 0 2 -2682z"/>
<path d="M16130 4725 l0 -525 -245 0 -245 0 0 -495 0 -495 243 -2 242 -3 6
-1105 c5 -1076 6 -1108 27 -1215 107 -552 415 -811 1016 -855 350 -25 677 33
948 168 l113 57 3 467 c1 258 0 468 -3 468 -3 0 -31 -13 -63 -29 -144 -72
-359 -116 -527 -108 -121 7 -179 26 -239 78 -59 52 -93 124 -106 224 -7 52
-10 391 -8 965 l3 885 483 3 482 2 0 495 0 495 -485 0 -485 0 0 525 0 525
-580 0 -580 0 0 -525z"/>
<path d="M13375 4269 c-558 -52 -1062 -288 -1426 -666 -200 -209 -355 -454
-453 -716 -254 -680 -147 -1452 282 -2026 71 -96 254 -284 352 -364 306 -248
683 -409 1110 -474 160 -24 511 -24 670 1 266 40 485 107 705 215 516 253 909
701 1084 1236 119 365 137 790 49 1170 -171 742 -745 1330 -1504 1544 -272 77
-590 106 -869 80z m489 -1033 c241 -68 449 -218 589 -423 270 -397 272 -970 4
-1368 -54 -79 -167 -196 -243 -251 -297 -212 -736 -249 -1080 -89 -201 92
-389 278 -494 485 -81 160 -118 305 -127 496 -11 232 28 430 122 619 142 287
385 477 696 544 80 18 121 20 269 17 151 -3 187 -7 264 -30z"/>
<path d="M24020 4270 c-365 -45 -659 -211 -931 -527 -51 -59 -96 -109 -101
-111 -4 -2 -8 125 -8 282 l0 286 -580 0 -580 0 0 -2055 0 -2055 579 0 580 0 4
1228 c3 1217 4 1228 25 1323 56 246 175 416 354 503 103 50 175 67 314 73 358
16 603 -152 697 -477 46 -156 47 -199 47 -1457 l0 -1193 580 0 580 0 0 1419
c0 1538 0 1533 -55 1752 -140 556 -501 899 -1045 993 -115 20 -357 28 -460 16z"/>
<path d="M20210 2145 l0 -2055 583 2 582 3 3 2053 2 2052 -585 0 -585 0 0
-2055z"/>
<path d="M1360 1445 c-734 -734 -1337 -1335 -1340 -1335 -3 0 276 281 620 625
l625 625 -628 628 -627 627 0 -1253 c0 -993 3 -1254 13 -1257 6 -3 1210 -4
2673 -3 l2662 3 -1325 1335 c-728 734 -1327 1336 -1331 1338 -4 1 -608 -599
-1342 -1333z"/>
</g>
</svg>
