<svg width="150" height="76" viewBox="0 0 150 76" fill="none" xmlns="http://www.w3.org/2000/svg">
<g id="nodejs-ar21">
<g id="Group">
<path id="Vector" d="M133.48 32.2568C133.141 32.2568 132.811 32.3268 132.519 32.4919L123.287 37.8234C122.69 38.1675 122.327 38.8178 122.327 39.5092V50.1531C122.327 50.8443 122.69 51.4935 123.287 51.8387L125.698 53.2281C126.87 53.8056 127.302 53.7964 127.835 53.7964C129.569 53.7964 130.559 52.744 130.559 50.9149V40.4139C130.559 40.2655 130.431 40.1592 130.285 40.1592H129.128C128.98 40.1592 128.854 40.2682 128.854 40.4139V50.9203C128.854 51.7311 128.01 52.5467 126.639 51.8613L124.133 50.3912C124.044 50.343 123.976 50.255 123.976 50.1561V39.5122C123.976 39.4114 124.044 39.3084 124.133 39.2575L133.346 33.945C133.432 33.8955 133.535 33.8955 133.62 33.945L142.833 39.2575C142.921 39.3101 142.99 39.4081 142.99 39.5122V50.1561C142.99 50.2578 142.939 50.3618 142.853 50.4109L133.62 55.7233C133.539 55.7704 133.43 55.7704 133.346 55.7233L130.974 54.3121C130.903 54.2707 130.807 54.274 130.739 54.3121C130.084 54.6831 129.961 54.7262 129.348 54.9392C129.196 54.9918 128.966 55.0738 129.426 55.3315L132.523 57.1568C132.818 57.3274 133.146 57.4116 133.484 57.4116C133.825 57.4116 134.149 57.3298 134.444 57.1568L143.676 51.8444C144.274 51.4968 144.637 50.85 144.637 50.1589V39.5149C144.637 38.8235 144.274 38.1746 143.676 37.8291L134.444 32.4976C134.155 32.3325 133.823 32.2625 133.484 32.2625L133.48 32.2568ZM135.95 39.8625C133.321 39.8625 131.755 40.9814 131.755 42.8419C131.755 44.8579 133.309 45.4147 135.833 45.6643C138.851 45.9599 139.086 46.4031 139.086 46.9973C139.086 48.0279 138.265 48.4673 136.323 48.4673C133.883 48.4673 133.346 47.8582 133.167 46.642C133.146 46.5118 133.045 46.4069 132.912 46.4069H131.713C131.641 46.4085 131.572 46.4379 131.521 46.489C131.47 46.5401 131.441 46.609 131.439 46.6813C131.439 48.2349 132.284 50.0722 136.32 50.0722C139.241 50.0722 140.926 48.928 140.926 46.9164C140.926 44.9276 139.565 44.3901 136.732 44.015C133.871 43.6336 133.595 43.451 133.595 42.78C133.595 42.2264 133.827 41.486 135.947 41.486C137.842 41.486 138.542 41.8946 138.829 43.1718C138.854 43.2917 138.96 43.3897 139.084 43.3897H140.282C140.356 43.3897 140.427 43.3445 140.479 43.2917C140.529 43.2353 140.564 43.1718 140.557 43.0955C140.372 40.8959 138.905 39.8612 135.951 39.8612L135.95 39.8625Z" fill="#83CD29"/>
<path id="Vector_2" d="M79.2034 18.3036C79.1003 18.3038 78.999 18.3308 78.9095 18.382C78.8204 18.4341 78.7465 18.5086 78.6949 18.5979C78.6434 18.6873 78.616 18.7886 78.6155 18.8918V33.887C78.6155 34.0341 78.5468 34.166 78.4193 34.2398C78.3569 34.2762 78.2858 34.2954 78.2135 34.2954C78.1412 34.2954 78.0702 34.2762 78.0077 34.2398L75.5574 32.8286C75.3787 32.7252 75.1759 32.6707 74.9694 32.6707C74.7629 32.6707 74.5601 32.7252 74.3814 32.8286L64.6005 38.4737C64.2349 38.6845 64.012 39.0905 64.012 39.5125V50.8029C64.0117 51.0095 64.066 51.2125 64.1692 51.3915C64.2725 51.5704 64.4212 51.7189 64.6002 51.822L74.3814 57.4674C74.56 57.5711 74.7629 57.6257 74.9694 57.6257C75.1759 57.6257 75.3788 57.5711 75.5574 57.4674L85.3386 51.822C85.5176 51.7189 85.6663 51.5704 85.7696 51.3915C85.8728 51.2125 85.9271 51.0095 85.9268 50.8029V22.6551C85.9268 22.2269 85.693 21.825 85.3193 21.6164L79.4976 18.3622C79.4061 18.3112 79.3048 18.3025 79.2034 18.3036ZM16.2824 32.3971C16.0958 32.4047 15.9206 32.4371 15.7531 32.5344L5.97219 38.1794C5.79302 38.2824 5.64426 38.4309 5.541 38.6099C5.43775 38.7889 5.38368 38.992 5.38428 39.1986L5.40417 54.351C5.40417 54.5619 5.51314 54.7575 5.6984 54.8605C5.88011 54.9695 6.10541 54.9695 6.28631 54.8605L12.0883 51.5281C12.4561 51.3101 12.6958 50.9298 12.6958 50.5092V43.4328C12.6958 43.0105 12.9179 42.6236 13.2843 42.4139L15.7542 40.983C15.9326 40.8793 16.1356 40.8251 16.3421 40.8261C16.5486 40.8249 16.7517 40.8791 16.9302 40.983L19.399 42.413C19.7649 42.6228 19.9869 43.0102 19.9869 43.4319V50.5081C19.9869 50.9293 20.2321 51.3118 20.5945 51.527L26.3965 54.8594C26.579 54.9684 26.8037 54.9684 26.9844 54.8594C27.1642 54.7559 27.2786 54.5605 27.2786 54.3499L27.2982 39.1981C27.2994 38.9913 27.2455 38.788 27.1422 38.6089C27.0389 38.4298 26.8899 38.2814 26.7103 38.1789L16.9294 32.5341C16.7641 32.4371 16.5881 32.4044 16.4001 32.3968H16.2829L16.2824 32.3971ZM104.176 32.5344C103.969 32.5338 103.766 32.5879 103.587 32.6913L93.8063 38.3366C93.4413 38.5478 93.2179 38.9338 93.2179 39.3555V50.646C93.2179 51.0704 93.4571 51.4551 93.8254 51.6648L103.528 57.1952C103.886 57.3995 104.324 57.4151 104.685 57.2143L110.565 53.9407C110.752 53.8372 110.878 53.6438 110.878 53.4313C110.879 53.2188 110.769 53.0276 110.584 52.9219L100.744 47.2765C100.56 47.1713 100.431 46.9586 100.431 46.7472V43.2167C100.431 43.0059 100.561 42.8124 100.744 42.7073L103.802 40.943C103.984 40.8378 104.207 40.8378 104.39 40.943L107.449 42.7073C107.539 42.7587 107.613 42.8329 107.665 42.9224C107.716 43.0119 107.743 43.1134 107.743 43.2167V46.0002C107.743 46.1035 107.77 46.205 107.822 46.2945C107.873 46.3839 107.948 46.4582 108.037 46.5096C108.22 46.6153 108.442 46.6159 108.626 46.5096L114.486 43.0996C114.85 42.8882 115.075 42.501 115.075 42.0807V39.3563C115.075 39.1498 115.02 38.9469 114.917 38.768C114.814 38.5891 114.665 38.4405 114.486 38.3372L104.764 32.6918C104.585 32.5884 104.382 32.5342 104.176 32.5349L104.176 32.5344ZM74.93 40.9634C74.9848 40.9632 75.0387 40.9766 75.087 41.0024L78.4387 42.9429C78.5297 42.9955 78.5956 43.0928 78.5956 43.1976V47.0787C78.5956 47.1841 78.5302 47.2811 78.4387 47.3334L75.087 49.274C74.9957 49.3257 74.8843 49.3257 74.7927 49.274L71.441 47.3334C71.3497 47.2809 71.2841 47.1836 71.2841 47.0787V43.1971C71.2841 43.0919 71.35 42.9955 71.441 42.9424L74.7927 41.0021C74.8385 40.9757 74.8788 40.9634 74.93 40.9634Z" fill="#404137"/>
<path id="Vector_3" d="M45.6655 32.4753C45.459 32.4749 45.256 32.529 45.0771 32.6322L35.2959 38.2579C34.9303 38.4688 34.708 38.875 34.708 39.2967V50.5871C34.7075 50.7937 34.7616 50.9968 34.8648 51.1757C34.9681 51.3546 35.1168 51.5031 35.2959 51.606L45.0771 57.2514C45.2557 57.355 45.4586 57.4096 45.6651 57.4096C45.8717 57.4096 46.0745 57.355 46.2532 57.2514L56.0343 51.606C56.2133 51.5029 56.362 51.3544 56.4653 51.1754C56.5685 50.9965 56.6228 50.7935 56.6225 50.5868V39.2964C56.6225 38.8742 56.4002 38.4682 56.034 38.2576L46.2529 32.6319C46.0741 32.5283 45.871 32.4741 45.6644 32.475L45.6655 32.4753ZM104.157 42.5506C104.118 42.5506 104.075 42.5506 104.039 42.5697L102.157 43.6676C102.122 43.6871 102.093 43.7154 102.072 43.7498C102.052 43.7842 102.04 43.8234 102.04 43.8635V46.0198C102.04 46.101 102.087 46.1751 102.157 46.2159L104.039 47.294C104.071 47.314 104.109 47.3246 104.147 47.3246C104.185 47.3246 104.222 47.314 104.254 47.294L106.136 46.2159C106.206 46.1759 106.254 46.101 106.254 46.0198V43.8635C106.254 43.7823 106.206 43.7082 106.136 43.6673L104.254 42.5694C104.219 42.5487 104.195 42.5504 104.156 42.5504L104.157 42.5506Z" fill="#83CD29"/>
</g>
</g>
</svg>
