<svg width="150" height="76" viewBox="0 0 150 76" fill="none" xmlns="http://www.w3.org/2000/svg">
<g id="reactjs-ar21">
<g id="Group">
<path id="Vector" d="M32.55 42.397C34.9494 42.397 36.8945 40.4519 36.8945 38.0525C36.8945 35.6532 34.9494 33.7081 32.55 33.7081C30.1506 33.7081 28.2056 35.6532 28.2056 38.0525C28.2056 40.4519 30.1506 42.397 32.55 42.397Z" fill="#00D8FF"/>
<g id="Group_2">
<path id="Vector_2" fill-rule="evenodd" clip-rule="evenodd" d="M32.5503 29.2193C38.3833 29.2193 43.8021 30.0563 47.8878 31.4628C52.8105 33.1576 55.8371 35.7264 55.8371 38.0525C55.8371 40.4764 52.6295 43.2055 47.3431 44.9569C43.3465 46.2811 38.0873 46.9723 32.5503 46.9723C26.8733 46.9723 21.4975 46.3235 17.4559 44.9424C12.3425 43.1946 9.2627 40.4303 9.2627 38.0525C9.2627 35.7453 12.1525 33.1963 17.006 31.5042C21.107 30.0744 26.6595 29.2193 32.5495 29.2193H32.5503Z" stroke="#00D8FF" stroke-width="1.66272"/>
<path id="Vector_3" fill-rule="evenodd" clip-rule="evenodd" d="M24.8608 33.6614C27.7748 28.6084 31.2068 24.3325 34.4664 21.4958C38.3937 18.0781 42.1311 16.7396 44.1461 17.9015C46.2459 19.1124 47.0075 23.2546 45.8839 28.7088C45.0352 32.8325 43.0058 37.7336 40.2396 42.5302C37.4035 47.448 34.156 51.7808 30.9408 54.5911C26.8723 58.1476 22.9389 59.4347 20.8792 58.2468C18.8804 57.095 18.1161 53.3175 19.0749 48.2676C19.8851 44.0008 21.9182 38.7637 24.8598 33.6613L24.8608 33.6614Z" stroke="#00D8FF" stroke-width="1.66272"/>
<path id="Vector_4" fill-rule="evenodd" clip-rule="evenodd" d="M24.8681 42.5431C21.9458 37.4959 19.9561 32.386 19.1256 28.1454C18.1259 23.036 18.8327 19.1295 20.8458 17.9642C22.9436 16.7497 26.9126 18.1585 31.0768 21.856C34.2252 24.6515 37.4582 28.8565 40.2324 33.6486C43.0767 38.5617 45.2084 43.5392 46.0377 47.7282C47.087 53.0292 46.2378 57.0796 44.1799 58.2709C42.1831 59.4268 38.5292 58.203 34.6331 54.8502C31.3412 52.0175 27.8192 47.6405 24.8681 42.543V42.5431Z" stroke="#00D8FF" stroke-width="1.66272"/>
</g>
</g>
<path id="Vector_5" fill-rule="evenodd" clip-rule="evenodd" d="M80.775 49.1523L75.45 41.1073C78.1412 40.8698 80.5662 38.9198 80.5662 35.3573C80.5662 31.7323 77.9937 29.4123 74.385 29.4123H66.46V49.1373H68.915V41.2998H72.8487L77.8762 49.1373L80.775 49.1523ZM74.0912 39.156H68.9162V31.6148H74.0912C76.4287 31.6148 78.025 33.1523 78.025 35.371C78.025 37.5898 76.4275 39.1585 74.0912 39.1585V39.156ZM89.9137 49.506C92.2512 49.506 94.1725 48.7373 95.5925 47.3185L94.5275 45.8685C93.4025 47.0223 91.7475 47.6723 90.1212 47.6723C87.0462 47.6723 85.1525 45.4248 84.975 42.7348H96.5375V42.1723C96.5375 37.8848 93.9937 34.5123 89.675 34.5123C85.5937 34.5123 82.6375 37.8548 82.6375 41.9948C82.6375 46.461 85.6837 49.4948 89.9125 49.4948L89.9137 49.506ZM94.3512 41.106H84.9762C85.095 38.9185 86.6012 36.3435 89.6487 36.3435C92.9025 36.3435 94.3212 38.976 94.3512 41.106ZM111.269 49.151V39.3323C111.269 35.8723 108.756 34.511 105.739 34.511C103.401 34.511 101.569 35.2798 100.031 36.8773L101.066 38.4148C102.337 37.0548 103.729 36.4335 105.444 36.4335C107.514 36.4335 109.052 37.5273 109.052 39.4498V42.0223C107.899 40.691 106.272 40.0698 104.32 40.0698C101.895 40.0698 99.32 41.5785 99.32 44.7723C99.32 47.8773 101.892 49.5048 104.32 49.5048C106.242 49.5048 107.87 48.8248 109.052 47.5235V49.1485L111.269 49.151ZM105.119 47.9085C103.049 47.9085 101.599 46.6085 101.599 44.8035C101.599 42.9698 103.049 41.6685 105.119 41.6685C106.686 41.6685 108.194 42.2598 109.052 43.4435V46.1348C108.195 47.3173 106.686 47.9085 105.119 47.9085ZM121.994 49.506C124.596 49.506 126.134 48.441 127.229 47.0223L125.75 45.6623C124.804 46.9335 123.591 47.5248 122.125 47.5248C119.079 47.5248 117.187 45.1585 117.187 41.9948C117.187 38.831 119.08 36.4948 122.125 36.4948C123.604 36.4948 124.816 37.0573 125.75 38.3573L127.229 36.9973C126.135 35.5773 124.596 34.5135 121.994 34.5135C117.735 34.5135 114.866 37.7673 114.866 41.996C114.866 46.2548 117.735 49.496 121.994 49.496V49.506ZM133.944 49.506C135.244 49.506 136.044 49.121 136.606 48.5898L135.956 46.9335C135.66 47.2585 135.081 47.5248 134.447 47.5248C133.472 47.5248 132.997 46.756 132.997 45.691V36.8185H135.897V34.8673H132.997V30.9635H130.779V34.8673H128.412V36.8198H130.779V46.166C130.779 48.296 131.844 49.5085 133.944 49.5085V49.506Z" fill="#00D8FF"/>
</g>
</svg>
