<svg width="150" height="76" viewBox="0 0 150 76" fill="none" xmlns="http://www.w3.org/2000/svg">
<g id="postgresql-ar21">
<path id="Vector" d="M16.95 55.501H10.425V48.9385H17.305C19.8225 48.9385 21.0825 50.0635 21.0825 52.271C21.0825 54.4247 19.705 55.5022 16.9512 55.5022M21.6412 48.8622C20.7475 48.0622 19.4962 47.6622 17.8875 47.6622L8.54248 47.7122V63.4122H10.425L10.4075 56.7285H17.3612C19.105 56.7285 20.4775 56.3285 21.4787 55.5285C22.48 54.7285 22.9812 53.616 22.9812 52.196C22.9812 50.776 22.5337 49.6635 21.64 48.8635L21.6412 48.8622ZM33.825 60.1172C33.6454 60.631 33.3378 61.0905 32.9312 61.4522C32.0875 62.2772 30.8012 62.686 29.0562 62.686C27.4937 62.686 26.3062 62.286 25.4562 61.486C24.6062 60.686 24.2 59.6147 24.2 58.2735C24.2 57.5735 24.31 56.9547 24.5287 56.4135C24.7362 55.8894 25.0622 55.4205 25.4812 55.0435C26.3462 54.256 27.5387 53.8597 29.0562 53.8597C32.4312 53.8597 34.0975 55.331 34.0975 58.2722C34.0975 58.9722 34.0012 59.5847 33.81 60.1147M34.1512 54.3235C33.0037 53.2772 31.305 52.7535 29.055 52.7535C26.93 52.7535 25.2862 53.2885 24.1275 54.3572C23.0812 55.3247 22.5587 56.6297 22.5587 58.2722C22.5587 59.9035 23.0987 61.2197 24.1787 62.2222C24.775 62.7622 25.47 63.1535 26.2625 63.3947C27.055 63.636 27.9875 63.7697 29.055 63.7697C31.305 63.7697 32.9975 63.2522 34.18 62.2172C35.2262 61.2722 35.7487 59.9622 35.7487 58.286C35.7487 56.5985 35.22 55.2822 34.1612 54.336L34.1512 54.3235ZM48.4012 60.5697C48.4012 62.6947 46.5075 63.7397 42.7212 63.7397C41.5637 63.7397 40.5887 63.6647 39.7962 63.5197C39.0037 63.3747 38.3612 63.1285 37.8662 62.7897C37.488 62.5331 37.1761 62.1904 36.9562 61.7897C36.7312 61.386 36.585 60.8522 36.5187 60.221L38.2687 60.2047C38.2687 61.036 38.5775 61.6485 39.1937 62.0422C39.8562 62.5147 41.0275 62.751 42.71 62.751C45.3562 62.751 46.68 62.0885 46.68 60.761C46.68 59.986 46.2362 59.4522 45.3487 59.161C45.1687 59.1047 44.0987 58.956 42.1362 58.7147C40.1737 58.4735 38.9537 58.256 38.47 58.0647C37.425 57.6485 36.9025 56.9022 36.9025 55.8222C36.8832 55.3356 37.0052 54.8537 37.2536 54.4347C37.502 54.0158 37.8662 53.6776 38.3025 53.461C38.765 53.2485 39.34 53.0822 40.0325 52.9635C40.725 52.8447 41.5262 52.786 42.4375 52.786C46.0825 52.786 47.905 53.9297 47.905 56.2172H46.23C46.23 54.6097 44.9487 53.8047 42.3862 53.8047C41.0825 53.8047 40.1112 53.9672 39.47 54.3047C38.8287 54.6422 38.5075 55.1297 38.5075 55.8047C38.5075 56.4347 38.94 56.8897 39.805 57.171C40.3112 57.3172 41.4737 57.486 43.295 57.6772C44.925 57.8235 46.0425 58.031 46.65 58.3022C47.8075 58.7522 48.4 59.5147 48.4 60.5947L48.4012 60.5697ZM55.3212 63.4447L54.605 63.5447L54.1575 63.5785C53.01 63.5785 52.1825 63.4122 51.6762 63.0785C51.17 62.7447 50.9262 62.1635 50.9262 61.3285V54.166H48.8387V53.1122H50.9137L50.93 49.7272H52.5362V53.1122H55.3337V54.1835L52.5362 54.166V61.1372C52.5362 61.656 52.6612 62.0147 52.9487 62.2122C53.2362 62.4097 53.7162 62.5085 54.4237 62.5085C54.5237 62.521 54.6362 62.516 54.7612 62.496C54.8862 62.476 55.07 62.4335 55.3175 62.3685L55.335 63.4435L55.3212 63.4447ZM66.43 61.0547C65.984 61.4185 65.4758 61.6985 64.93 61.881C64.3675 62.0722 63.7225 62.1685 62.9925 62.1685C59.6325 62.1685 57.955 60.7935 57.955 58.006C57.955 56.7147 58.385 55.7035 59.2425 54.9735C60.1 54.2435 61.3125 53.8785 62.8737 53.8785C64.4462 53.8785 65.64 54.246 66.455 54.9822C67.27 55.7185 67.6775 56.7035 67.6775 57.9397C67.6775 59.2872 67.2612 60.3147 66.43 61.0572M69.2837 53.1072H67.6775L67.66 54.8785C66.9525 54.1597 66.4475 53.7035 66.1425 53.5135C65.2425 53.0197 64.08 52.7722 62.6525 52.7722C60.5612 52.7722 58.965 53.2497 57.865 54.2047C56.82 55.0797 56.2975 56.351 56.2975 58.0135C56.2975 58.8335 56.43 59.5672 56.6937 60.2135C56.9575 60.8597 57.3437 61.4072 57.85 61.856C58.9537 62.7772 60.5125 63.2385 62.5275 63.2385C64.9475 63.2385 66.6525 62.576 67.6775 61.2385V63.0722C67.6775 64.241 67.3087 65.1472 66.5725 65.7872C65.8362 66.4272 64.625 66.7497 62.9387 66.7497C61.3537 66.7497 60.2237 66.531 59.5637 66.0947C59.0575 65.7597 58.7087 65.1772 58.5187 64.3485H56.875C57.055 65.5047 57.5437 66.3422 58.3425 66.8585C59.265 67.4535 60.8225 67.751 63.015 67.751C67.21 67.751 69.3075 66.1922 69.3075 63.0735V53.0947L69.2837 53.1072ZM77.9712 54.151C77.526 54.0757 77.0753 54.0364 76.6237 54.0335C73.9837 54.0335 72.6637 55.481 72.6637 58.3772V63.4122H71.0762L71.0587 53.1085L72.665 53.1247V54.9622H72.7487C73.0187 54.2372 73.445 53.6872 74.03 53.3147C74.67 52.9397 75.625 52.771 76.895 52.771H77.9737V54.1497L77.9712 54.151ZM79.4662 57.6085C79.6687 56.4372 80.1237 55.531 80.8312 54.8885C81.2937 54.5172 81.815 54.2385 82.3987 54.051C82.9825 53.8635 83.6412 53.7722 84.3712 53.7722C85.7987 53.7722 86.9637 54.1635 87.8687 54.9472C88.7737 55.731 89.2375 56.6172 89.2375 57.6097H79.4787M89.395 54.431C88.8077 53.8524 88.0901 53.4233 87.3025 53.1797C86.47 52.9085 85.4975 52.7735 84.3837 52.7735C82.3025 52.7735 80.6887 53.2572 79.5412 54.2235C78.3937 55.1897 77.82 56.5072 77.82 58.1735C77.82 59.8397 78.37 61.1735 79.4725 62.1385C80.6637 63.2185 82.345 63.7585 84.5162 63.7585C85.3812 63.7585 86.1825 63.6585 86.9187 63.4647C87.655 63.271 88.2987 62.9897 88.85 62.6335C89.8175 61.9385 90.4287 61.0835 90.6875 60.0635H88.9375C88.3412 61.8135 86.8587 62.706 84.4875 62.706C82.8125 62.706 81.525 62.276 80.6125 61.4135C79.8375 60.6635 79.45 59.7185 79.45 58.5435H90.9C90.9 56.796 90.4 55.4247 89.365 54.4185L89.395 54.431Z" fill="#231F20"/>
<path id="Vector_2" d="M107.9 59.2023C107.9 62.2611 105.433 63.7898 100.5 63.7898C97.5439 63.7898 95.3852 63.2648 94.0252 62.2086C92.9002 61.3423 92.3564 60.0211 92.3564 58.2461H94.3564C94.3564 61.1023 96.4064 62.5298 100.513 62.5298C102.48 62.5298 103.904 62.2373 104.78 61.6548C105.523 61.1386 105.905 60.3298 105.905 59.2298C105.905 58.1398 105.399 57.3761 104.386 56.9373C103.811 56.6873 102.411 56.4036 100.186 56.0436C97.3864 55.6161 95.5702 55.1898 94.7389 54.7636C93.5364 54.1348 92.9339 53.0673 92.9339 51.5611C92.9339 50.1573 93.4339 49.1111 94.4689 48.4261C95.5689 47.6736 97.4602 47.2973 100.136 47.2973C104.974 47.2973 107.39 48.9036 107.39 52.1161H105.375C105.375 49.7098 103.579 48.5073 100 48.5073C98.2002 48.5073 96.8827 48.7498 96.0502 49.2323C95.2627 49.7498 94.8689 50.5073 94.8689 51.5098C94.8689 52.5561 95.3752 53.2923 96.3877 53.7198C96.9252 53.9673 98.5127 54.3098 101.145 54.7498C103.62 55.1211 105.289 55.5536 106.145 56.0498C107.326 56.6573 107.916 57.7086 107.916 59.2048L107.9 59.2023ZM124.035 60.7648C123.287 61.3627 122.434 61.8166 121.52 62.1036C120.585 62.4011 119.539 62.5498 118.38 62.5498C116.005 62.5498 114.105 61.9248 112.648 60.6373C111.19 59.3498 110.46 57.6661 110.46 55.5448C110.46 53.3323 111.183 51.6111 112.629 50.3761C114.075 49.1411 116.004 48.5236 118.379 48.5236C120.799 48.5236 122.701 49.1686 124.085 50.4611C124.816 51.0898 125.356 51.8361 125.706 52.6673C126.056 53.4986 126.231 54.4673 126.231 55.5461C126.231 57.7461 125.499 59.4861 124.036 60.7661M125.093 61.8073C126.128 61.0773 126.893 60.1823 127.389 59.1536C127.885 58.1248 128.133 56.9036 128.133 55.5561C128.133 53.1186 127.323 51.1636 125.703 49.6811C124.836 48.8723 123.79 48.2711 122.578 47.8786C121.365 47.4861 119.953 47.2886 118.378 47.2886C115.319 47.2886 112.918 48.0298 111.174 49.5136C109.43 50.9973 108.559 53.0073 108.559 55.5461C108.559 58.0173 109.438 60.0111 111.184 61.5273C112.93 63.0436 115.346 63.8023 118.394 63.8023C119.585 63.8023 120.625 63.7211 121.514 63.5611C122.403 63.4011 123.155 63.1523 123.774 62.8186L126.709 64.8523L127.934 63.7273L125.093 61.7998V61.8073ZM143.005 63.4111H129.433V47.6923L131.299 47.6586V62.0961H143.024L143.006 63.4086L143.005 63.4111Z" fill="#367FAF"/>
<g id="Vector_3">
<path d="M84.2686 35.0373C84.5148 32.9873 84.4411 32.6873 85.9686 33.0198L86.3436 33.0536C87.5186 33.1073 89.0523 32.8661 89.9561 32.4461C91.8973 31.5461 93.0486 30.0411 91.1348 30.4361C86.7673 31.3361 86.4673 29.8586 86.4673 29.8586C91.0798 23.0161 93.0048 14.3298 91.3423 12.2048C86.8048 6.4048 78.9473 9.14855 78.8173 9.2198L78.7761 9.2273C77.9136 9.04855 76.9473 8.9398 75.8636 8.92355C73.8886 8.89105 72.3886 9.44105 71.2386 10.3048C71.2386 10.3048 57.2236 4.5298 57.8636 17.5673C58.0011 20.3398 61.8386 38.5498 66.4136 33.0498C68.0861 31.0373 69.7011 29.3373 69.7011 29.3373C70.5036 29.8711 71.4511 30.1423 72.4723 30.0448L72.5498 29.9786C72.5264 30.2396 72.5369 30.5027 72.5811 30.7611C71.4023 32.0773 71.7486 32.3111 69.3936 32.7948C67.0098 33.2861 68.4098 34.1611 69.3248 34.3898C70.4336 34.6673 72.9998 35.0598 74.7311 32.6336L74.6623 32.9111C75.1248 33.2811 75.0936 35.5698 75.1586 37.2048C75.2236 38.8398 75.3336 40.3673 75.6673 41.2673C76.0011 42.1673 76.3923 44.4848 79.4923 43.8211C82.0798 43.2661 84.0598 42.4686 84.2398 35.0423" fill="#231F20"/>
<path d="M84.2686 35.0373C84.5148 32.9873 84.4411 32.6873 85.9686 33.0198L86.3436 33.0536C87.5186 33.1073 89.0523 32.8661 89.9561 32.4461C91.8973 31.5461 93.0486 30.0411 91.1348 30.4361C86.7673 31.3361 86.4673 29.8586 86.4673 29.8586C91.0798 23.0161 93.0048 14.3298 91.3423 12.2048C86.8048 6.4048 78.9473 9.14855 78.8173 9.2198L78.7761 9.2273C77.9136 9.04855 76.9473 8.9398 75.8636 8.92355C73.8886 8.89105 72.3886 9.44105 71.2386 10.3048C71.2386 10.3048 57.2236 4.5298 57.8636 17.5673C58.0011 20.3398 61.8386 38.5498 66.4136 33.0498C68.0861 31.0373 69.7011 29.3373 69.7011 29.3373C70.5036 29.8711 71.4511 30.1423 72.4723 30.0448L72.5498 29.9786C72.5264 30.2396 72.5369 30.5027 72.5811 30.7611C71.4023 32.0773 71.7486 32.3111 69.3936 32.7948C67.0098 33.2861 68.4098 34.1611 69.3248 34.3898C70.4336 34.6673 72.9998 35.0598 74.7311 32.6336L74.6623 32.9111C75.1248 33.2811 75.0936 35.5698 75.1586 37.2048C75.2236 38.8398 75.3336 40.3673 75.6673 41.2673C76.0011 42.1673 76.3923 44.4848 79.4923 43.8211C82.0798 43.2661 84.0598 42.4686 84.2398 35.0423" stroke="#231F20" stroke-width="2.598"/>
</g>
<path id="Vector_4" d="M91.1448 30.4361C86.7773 31.3361 86.4773 29.8586 86.4773 29.8586C91.0898 23.0161 93.0148 14.3298 91.3523 12.2036C86.8148 6.40358 78.9573 9.14733 78.8273 9.21858L78.7848 9.22608C77.9223 9.04733 76.9561 8.93858 75.8723 8.92233C73.8973 8.88983 72.3973 9.43983 71.2473 10.3036C71.2473 10.3036 57.2323 4.52858 57.8723 17.5661C58.0098 20.3411 61.8473 38.5486 66.4223 33.0486C68.0948 31.0361 69.7098 29.3361 69.7098 29.3361C70.5123 29.8698 71.4723 30.1411 72.4798 30.0436L72.5586 29.9773C72.5336 30.2273 72.5461 30.4711 72.5898 30.7598C71.4111 32.0761 71.7573 32.3098 69.4023 32.7936C67.0186 33.2848 68.4186 34.1598 69.3336 34.3886C70.4423 34.6661 73.0086 35.0586 74.7398 32.6323L74.6711 32.9098C75.1336 33.2798 75.4586 35.3161 75.4023 37.1598C75.3461 39.0036 75.3123 40.2723 75.6773 41.2623C76.0423 42.2523 76.4023 44.4798 79.5023 43.8161C82.0898 43.2611 83.4323 41.8236 83.6186 39.4261C83.7511 37.7211 84.0511 37.9736 84.0686 36.4511L84.3086 35.7298C84.5861 33.4173 84.3524 32.6736 85.9461 33.0211L86.3211 33.0548C87.4961 33.1086 89.0311 32.8673 89.9336 32.4473C91.8748 31.5473 93.0261 30.0423 91.1123 30.4373L91.1448 30.4361Z" fill="#417BA2"/>
<g id="Group">
<g id="Group_2">
<path id="Vector_5" d="M74.9499 31.761C74.8299 36.061 74.9799 40.3898 75.3999 41.4423C75.8199 42.4948 76.7212 44.5423 79.8199 43.8773C82.4074 43.3223 83.3499 42.2485 83.7574 39.8773L84.7137 32.2985M71.2499 10.2073C71.2499 10.2073 57.2249 4.47477 57.8749 17.5098C57.9999 20.2848 61.8499 38.4935 66.4249 32.9935C68.0974 30.9935 69.6087 29.406 69.6087 29.406M78.8124 9.16102C78.3124 9.31352 86.6124 6.13227 91.3224 12.161C92.9849 14.286 91.0724 22.9735 86.4474 29.816" stroke="white" stroke-width="0.866" stroke-linecap="round" stroke-linejoin="round"/>
<path id="Vector_6" d="M86.4462 29.8048C86.4462 29.8048 86.7462 31.2835 91.1149 30.3823C93.0274 29.9873 91.8649 31.491 89.9362 32.3923C88.3437 33.1298 84.7737 33.321 84.7137 32.2998C84.5637 29.6623 86.5937 30.4648 86.4462 29.8048ZM86.4462 29.8048C86.3137 29.2098 85.4062 28.626 84.8062 27.171C84.2812 25.8998 77.6187 16.156 86.6562 17.6035C86.9874 17.5348 84.2987 9.0073 75.8412 8.86855C67.3837 8.7298 67.6637 19.2685 67.6637 19.2685" stroke="white" stroke-width="0.866" stroke-linecap="round" stroke-linejoin="bevel"/>
</g>
<g id="Group_3">
<path id="Vector_7" d="M72.5827 30.7048C71.404 32.0211 71.7502 32.2548 69.3952 32.7386C67.0115 33.2298 68.4115 34.1048 69.3265 34.3336C70.4352 34.6111 73.0015 35.0036 74.7327 32.5773C75.2602 31.8398 74.7302 30.6598 74.0052 30.3586C73.6552 30.2136 73.1865 30.0336 72.5852 30.7048H72.5827Z" stroke="white" stroke-width="0.866" stroke-linejoin="round"/>
<path id="Vector_8" d="M72.505 30.6823C72.3863 29.9073 72.76 28.9873 73.1588 27.9073C73.7588 26.2898 75.1588 24.6723 74.0375 19.5423C73.2125 15.7198 67.665 18.7461 67.6625 19.2648C67.66 19.7836 67.9125 21.8923 67.57 24.3486C67.12 27.5536 69.6075 30.2648 72.4738 29.9861" stroke="white" stroke-width="0.866" stroke-linecap="round" stroke-linejoin="round"/>
</g>
</g>
<g id="Group_4">
<path id="Vector_9" d="M71.1849 19.1886C71.1599 19.3661 71.5099 19.8386 71.9636 19.9011C72.4174 19.9636 72.8074 19.5949 72.8311 19.4186C72.8549 19.2424 72.5061 19.0461 72.0511 18.9811C71.5961 18.9161 71.2073 19.0099 71.1836 19.1874L71.1849 19.1886Z" fill="white" stroke="white" stroke-width="0.289"/>
<path id="Vector_10" d="M85.0272 18.8273C85.0522 19.0048 84.7022 19.4773 84.2484 19.5398C83.7947 19.6023 83.4047 19.2336 83.3797 19.0573C83.3547 18.8811 83.7047 18.6848 84.1597 18.6223C84.6147 18.5598 85.0034 18.6511 85.0284 18.8286L85.0272 18.8273Z" fill="white" stroke="white" stroke-width="0.144"/>
</g>
<path id="Vector_11" d="M86.6539 17.6023C86.7289 18.9898 86.3539 19.9373 86.3076 21.4148C86.2376 23.5648 87.3326 26.0235 85.6826 28.486" stroke="white" stroke-width="0.866" stroke-linecap="round" stroke-linejoin="round"/>
</g>
</svg>
