<?xml version="1.0" standalone="no"?>
<!DOCTYPE svg PUBLIC "-//W3C//DTD SVG 20010904//EN"
 "http://www.w3.org/TR/2001/REC-SVG-20010904/DTD/svg10.dtd">
<svg version="1.0" xmlns="http://www.w3.org/2000/svg"
 width="2560.000000pt" height="791.000000pt" viewBox="0 0 2560.000000 791.000000"
 preserveAspectRatio="xMidYMid meet">

<g transform="translate(0.000000,791.000000) scale(0.100000,-0.100000)"
fill="#000000" stroke="none">
<path d="M1940 7899 c-344 -10 -564 -43 -774 -116 -501 -172 -887 -566 -1049
-1068 -69 -214 -93 -392 -107 -780 -12 -346 -12 -3653 0 -4010 12 -357 30
-508 85 -712 98 -361 333 -699 635 -916 115 -81 340 -195 470 -235 212 -67
-10 -62 2787 -62 l2538 0 100 24 c218 53 426 148 605 274 121 86 297 261 380
380 199 283 291 556 331 987 8 82 13 716 16 2020 5 2317 0 2549 -68 2864 -127
586 -547 1055 -1109 1239 -227 75 -401 99 -805 112 -333 11 -3682 10 -4035 -1z
m2678 -1195 c527 -343 977 -808 1296 -1337 443 -736 599 -1561 426 -2261 l-27
-111 43 -56 c231 -301 387 -667 440 -1029 32 -225 5 -500 -51 -508 -16 -2 -31
16 -68 80 -94 164 -226 291 -372 359 -125 58 -199 73 -355 73 -218 -1 -364
-42 -629 -177 -298 -152 -495 -222 -765 -272 -377 -69 -815 -58 -1211 31 -871
194 -1691 713 -2269 1434 -128 159 -289 390 -272 390 3 0 49 -31 103 -69 442
-310 995 -543 1493 -630 208 -36 312 -45 545 -44 185 0 258 4 372 22 174 26
373 76 513 127 121 45 365 165 365 180 0 6 -56 56 -125 111 -567 452 -1200
1091 -1851 1868 -140 168 -582 717 -676 841 -68 89 -176 254 -167 254 3 0 76
-62 162 -138 648 -568 1688 -1352 2207 -1663 l40 -23 -35 41 c-19 22 -90 101
-156 174 -350 385 -814 961 -1176 1459 -165 227 -318 449 -318 463 0 5 100
-89 223 -209 630 -619 1374 -1243 2113 -1771 258 -184 579 -393 604 -393 12 0
77 201 101 315 70 317 76 675 18 1015 -87 512 -307 1018 -655 1508 -9 12 -13
22 -10 22 4 0 60 -34 124 -76z"/>
<path d="M12085 6644 c-754 -62 -1334 -416 -1566 -953 -75 -175 -109 -349
-109 -559 0 -222 37 -398 120 -568 124 -255 322 -439 645 -599 227 -113 395
-167 975 -315 639 -163 804 -220 996 -345 221 -143 332 -324 350 -566 23 -338
-200 -647 -577 -798 -361 -145 -844 -149 -1234 -11 -286 102 -515 297 -626
533 -24 54 -55 155 -74 250 l-5 27 -360 0 c-225 0 -360 -4 -360 -10 0 -5 7
-59 15 -119 97 -691 606 -1191 1379 -1355 213 -46 276 -51 601 -51 245 0 335
4 430 18 776 116 1292 487 1479 1065 88 272 100 598 31 867 -104 410 -401 698
-935 908 -171 67 -303 107 -630 192 -702 182 -823 218 -1004 304 -143 67 -229
126 -312 213 -114 121 -159 237 -158 413 1 119 22 213 69 311 128 266 418 447
810 506 116 17 400 14 515 -5 495 -84 813 -366 883 -784 l13 -78 358 -3 359
-2 -7 82 c-57 668 -539 1189 -1266 1367 -194 47 -314 62 -545 65 -115 2 -232
2 -260 0z"/>
<path d="M20588 6531 c-114 -37 -203 -113 -254 -216 -122 -250 38 -551 316
-594 227 -36 448 129 480 356 41 300 -254 546 -542 454z"/>
<path d="M23065 6473 c-192 -16 -331 -50 -464 -114 -87 -43 -116 -63 -186
-132 -94 -94 -144 -176 -186 -308 -46 -143 -59 -249 -66 -541 l-6 -268 -264 0
-263 0 0 -285 0 -285 265 0 265 0 2 -1627 3 -1628 348 -3 347 -2 0 1630 0
1630 665 0 664 0 4 -1242 c2 -1133 4 -1251 20 -1338 39 -208 108 -359 214
-462 123 -122 251 -179 489 -220 87 -14 527 -15 624 -1 l55 8 3 288 2 289 -27
-6 c-16 -2 -76 -8 -134 -11 -119 -8 -234 6 -316 37 -110 41 -197 156 -222 292
-8 41 -11 428 -11 1213 l0 1153 355 0 355 0 0 285 0 285 -355 0 -355 0 0 455
0 455 -350 0 -350 0 0 -455 0 -455 -665 0 -665 0 0 223 c0 242 11 319 53 404
38 75 117 139 201 165 86 26 352 27 451 2 l25 -6 0 275 0 275 -32 6 c-110 20
-365 30 -493 19z"/>
<path d="M14594 5093 c7 -22 1030 -3712 1045 -3770 l12 -43 358 0 358 0 416
1456 c229 801 419 1459 422 1462 3 3 7 3 9 1 3 -2 193 -660 423 -1462 l418
-1457 357 0 356 0 11 32 c29 95 1041 3768 1041 3782 0 14 -32 16 -339 16
l-339 0 -56 -232 c-31 -128 -197 -818 -369 -1532 -172 -715 -317 -1301 -323
-1303 -5 -1 -195 678 -423 1510 -227 831 -417 1522 -422 1535 l-9 22 -329 0
c-228 0 -332 -3 -337 -11 -3 -6 -192 -695 -419 -1531 -227 -836 -416 -1522
-419 -1525 -3 -4 -8 -4 -10 -2 -2 2 -169 690 -371 1529 -202 839 -369 1528
-372 1533 -2 4 -159 7 -349 7 -324 0 -345 -1 -340 -17z"/>
<path d="M20365 5098 c-3 -7 -4 -868 -3 -1913 l3 -1900 348 -3 347 -2 0 1915
0 1915 -345 0 c-267 0 -347 -3 -350 -12z"/>
</g>
</svg>
